<svg width="19" height="17" fill="none" xmlns="http://www.w3.org/2000/svg"><path fill-rule="evenodd" clip-rule="evenodd" d="M0 8.5c0-.322.125-.63.348-.858.222-.228.524-.356.84-.356h13.756l-5.098-5.21a1.23 1.23 0 01-.349-.86c0-.323.126-.632.349-.86.223-.228.525-.356.84-.356.316 0 .618.128.841.356l7.124 7.284A1.216 1.216 0 0119 8.5a1.237 1.237 0 01-.349.86l-7.124 7.284a1.176 1.176 0 01-.84.356c-.316 0-.618-.128-.841-.356a1.23 1.23 0 01-.349-.86c0-.322.126-.631.349-.86l5.098-5.21H1.187c-.315 0-.617-.128-.84-.356A1.228 1.228 0 010 8.5z" fill="#fff"/></svg>