<svg width="64" height="64" fill="none" xmlns="http://www.w3.org/2000/svg"><path d="M31.915 0C14.323 0 .008 14.317.008 31.909c0 17.593 14.315 31.909 31.907 31.909 17.595 0 31.911-14.315 31.911-31.909C63.826 14.317 49.51 0 31.916 0zm0 55.908c-13.232 0-23.998-10.766-23.998-24 0-13.235 10.766-24 23.998-24 13.236 0 24 10.767 24 24 0 13.235-10.766 24-24 24z" fill="#21907C"/><path d="M4.696 31.909C4.696 15.107 17.756 1.33 34.258.12 33.478.063 32.701 0 31.909 0 14.313 0 0 14.317 0 31.909c0 17.593 14.313 31.909 31.909 31.909.792 0 1.569-.063 2.349-.12-16.5-1.211-29.562-14.988-29.562-31.789zm29.564 23.88c.772.076 1.555.119 2.347.119 13.234 0 24-10.766 24-24 0-13.235-10.766-24-24-24-.792 0-1.574.043-2.347.12 12.134 1.184 21.65 11.44 21.65 23.882 0 12.443-9.516 22.696-21.65 23.881" fill="#0FB967"/></svg>