<svg width="935" height="933" fill="none" xmlns="http://www.w3.org/2000/svg"><path d="M336.736 30.054c2.632-1.42 3.812-4.952 2.347-7.776-1.421-2.657-4.768-3.904-7.565-2.44-2.797 1.464-3.856 4.786-2.556 7.654 1.465 2.823 4.932 3.86 7.774 2.562zm21.243-1.403c.572-.51 1.385-1.443 1.537-2.199l2.507.758c-.394 1.178-1.404 2.699-2.427 3.51-.286.255-.451.299-.782.388-2.511 1.208-5.813.128-7.596-1.896a13.835 13.835 0 01-1.975-3.402c-1-2.412-1.13-4.88-1.424-7.302a26.608 26.608 0 00-.845-5.134c-.536-2.001-1.581-4.58-3.846-5.76-1.426-.69-3.588-.825-5.108.118-2.886 1.13-3.901 4.619-2.645 7.32.478 1.123 1.407 1.946 2.457 2.558 1.425.69 2.654 1.97 3.431 3.548 2.154 4.069.505 9.156-3.571 11.142-3.865 2.108-8.923.425-10.911-3.688-2.153-4.069-.46-8.99 3.571-11.142.947-.432 2.105-.743 2.976-.797-.045-.167-.089-.334-.255-.29-1.988-4.113-.339-9.2 3.692-11.353 2.346-1.164 5.5-1.295 7.6-.07 2.94 1.713 4.33 4.915 5 7.416.491 1.833.652 3.756.768 5.512.295 2.422.5 4.512 1.246 6.635.478 1.122.867 1.912 1.586 2.612 1.318 1.613 3.66 2.415 5.014 1.516zM130.263 135.02c-2.667 2.667-3.394 6.546-1.939 9.94l12-11.758c-3.273-1.333-7.394-.848-10.061 1.818zm5.455 15.394l2.303 2.304-10.425 10.181-2.303-2.303 7.637-7.394a13.26 13.26 0 01-5.091-3.151l-6.667 6.424-2.303-2.303 6.909-6.667c-2.545-4.727-1.818-10.788 2.182-14.788s10.061-4.484 14.788-1.697l6.909-6.666 2.303 2.303-6.667 6.424c1.455 1.455 2.425 3.152 2.91 5.091l7.636-7.394 2.303 2.303-10.424 10.182-2.303-2.303c-.122-2.061-.97-4.121-2.425-5.576l-12.848 12.364a9.308 9.308 0 005.576 2.666zM7.617 335.144s4.235 3.541 11.27 5.611l1.111-4.145 3.282.879-1.065 3.973c6.83 1.459 12.74.821 12.74.821l.375 3.433c-.392.081-6.474.672-13.994-.972l-2.73 10.19c7.161 2.29 12.26 6.062 12.605 6.155l-1.996 2.612s-4.799-3.507-11.442-5.658l-1.019 3.8-3.282-.879 1.065-3.973c-7.3-1.771-12.566-.775-12.739-.821l-.595-3.307c.3.265 6.13-.764 14.12 1.192l2.731-10.191c-7.899-2.301-12.432-6.108-12.605-6.154l2.168-2.566zm4.863 257.61l-2.813.579-3.178-13.815 13.858-3.015.58 2.813-9.048 2.075 12.981 8.045 2.548-4.174 2.36 1.637-2.429 3.968 7.61 4.945-1.637 2.36-7.567-4.782-2.591 4.012-2.316-1.475 2.428-3.968-12.861-8.252 2.075 9.047zM141.8 779.627l-2.088.123-.123-6.019 6.019-.123.123 2.088h-2.457l.369.369c1.228 1.228 1.719 2.456 1.842 3.808 0 2.211-1.597 3.808-1.842 4.054l-13.882 14.372c-1.228 1.229-1.228 3.194.123 4.546l.737.737c1.229 1.228 3.194 1.228 4.545-.123l13.882-14.373 1.474 1.474-14.004 14.25c-1.229 1.228-1.229 3.194.122 4.545l.738.737c1.228 1.229 3.193 1.229 4.545-.123l13.881-14.372 1.474 1.474-13.881 14.373-.123.122s-.491.492-.737 1.475c-.369 1.105-.123 2.334.86 3.562l-1.72 1.228c-1.351-1.842-1.474-3.439-1.228-4.668-1.597.123-3.317-.368-4.546-1.597l-.737-.737c-1.228-1.228-1.719-2.948-1.597-4.545-1.474.246-3.194-.246-4.545-1.351l-.737-.737c-2.088-2.089-2.211-5.405-.123-7.494l13.882-14.372s1.105-1.106 1.228-2.457c0-.737-.369-1.597-1.106-2.334l-.368-.369v2.457zm209.174 137.179c5.077 1.543 10.444-1.411 12.033-6.658 1.543-5.077-1.411-10.444-6.659-12.033-5.247-1.589-10.443 1.411-12.033 6.658-1.418 5.294 1.536 10.66 6.659 12.033zm11.879 7.575c.774-.158 1.503-.146 2.311.254.171.045 1.321.536 1.821 1.402l-2.303 1.763a1.352 1.352 0 00-.762-.571l-.342-.091c-.387.079-1.036.454-1.515.875-.217.125-.262.296-.479.421l-.216.125c-.433.25-.912.67-1.345.92-1.037.455-1.982.567-3.007.293-.683-.183-1.32-.537-1.786-.845-.421-.479-.842-.958-1.092-1.391-.125-.216-1.466-2.04-3.25-5.629-.329-.82-.875-1.515-1.079-2.119-.604.204-1.299.75-2.119 1.079-3.51 2.171-5.538 2.909-5.755 3.034-.603.204-1.207.408-1.765.442-.558.033-1.287.021-1.924-.333-.854-.229-1.741-1.015-2.241-1.881-.25-.433-.454-1.037-.704-1.47l-.125-.217c-.125-.216-.08-.387-.25-.433-.205-.603-.409-1.207-.875-1.515-.125-.217-.296-.262-.296-.262a1.346 1.346 0 00-.945.112l-1.113-2.677c1.162-.238 2.232-.134 2.573-.042.683.183 1.537.411 1.912 1.061.717.741 1.046 1.561 1.375 2.381l.25.433.125.217c.079.387.329.82.454 1.037.25.433.592.524.717.741.341.091.512.137.729.012.216-.125.558-.034.774-.159 0 0 2.028-.737 5.367-2.954l.65-.375c-4.54-2.863-6.845-8.605-5.21-14.024 1.955-6.613 8.837-10.442 15.451-8.487 6.613 1.955 10.443 8.837 8.487 15.451-1.339 5.68-6.547 9.409-12.161 9.186.125.217.296.262.25.433 1.784 3.589 2.955 5.367 2.955 5.367.295.262.42.479.591.524.171.046.467.308.637.354.342.092.729.012.946-.113.558-.033.82-.329 1.253-.579l.216-.125c.046-.17.217-.125.433-.25.696-.545 1.391-1.091 2.382-1.375zm218.51-11.069l-2.077-7.753a24.975 24.975 0 00-1.125 7.019c-.065 1.079-.129 2.157.466 3.058.088.33.341.616.716.692.374.077.868-.056 1.198-.144.737-.551 1.043-2.048.822-2.872zm23.589 3.579c.76.858 1.926 1.252 3.499 1.184l.201 2.068c-2.277.08-3.697-.601-4.787-1.369-.636 1.585-1.944 2.642-3.549 3.249l-.99.265c-1.65.442-3.355.015-4.654-.874-.636 1.585-1.9 2.807-3.549 3.249l-.99.265c-2.804.752-5.732-.939-6.484-3.743l-.972-3.629c-.121.209-.406.463-.571.507-.902.595-1.891.86-2.849.586-.957-.274-1.794-.757-2.18-1.537-.892-1.352-.795-2.969-.775-4.212.227-3.774.992-7.515 2.309-10.519l-.133-.495s-.177-.66-.892-1.352c-.76-.857-1.927-1.252-3.5-1.184l-.2-2.068c2.771-.212 4.324.963 5.249 1.776.253.286.507.571.595.901.165-.044.121-.209.286-.253.483-.837 1.175-1.552 1.702-2.224 1.219-1.388 2.901-2.369 4.551-2.811l.574 2.145c-1.319.353-2.506 1.202-3.484 2.171-.572.507-1.099 1.178-1.417 1.971-.362.627-.769 1.09-.922 1.838l4.862 18.144c.442 1.65 2.16 2.781 3.974 2.295l.99-.266c1.649-.442 2.78-2.159 2.294-3.973l-5.215-19.464 2.144-.575 5.215 19.464c.442 1.65 2.16 2.781 3.974 2.294l.99-.265c1.143-1.013 2.064-2.851 1.622-4.501l-5.215-19.464 1.979-.53 5.216 19.464.044.165c.165-.044.342.615 1.058 1.307zm192.442-119.966l-.203 8.21-9.979-.219.158-3.41 6.442.187.203-8.211 8.463.206.203-8.21 8.21.203.314-6.567 3.284.03-.219 9.979-8.21-.203-.203 8.211-8.463-.206zm-11.136-11.601l-.203 8.21-9.979-.219.158-3.41 6.442.187.203-8.211 8.21.203.456-8.207 8.21.203.189-6.695 3.41.158-.22 9.979-8.21-.203-.456 8.208-8.21-.203zm141.209-191.729a7.517 7.517 0 01-4.26 3.924c-1.822.783-3.93.593-5.694-.227-1.596-.775-2.724-1.968-3.382-3.579-.659-1.61-.601-3.213.175-4.809.519-1.303 1.668-2.262 2.898-2.84 1.398-.534 2.832-.52 4.091.168 1.135.475 1.97 1.412 2.548 2.642.41 1.186.44 2.452.008 3.418l-2.774-1.083c.131-.505.219-.842-.03-1.266-.249-.425-.498-.849-.834-.937a2.417 2.417 0 00-1.94-.146c-.593.205-1.105.791-1.405 1.252-.388.798-.483 1.852-.154 2.657.33.805 1.04 1.53 1.838 1.917 1.134.476 2.357.615 3.586.037 1.186-.411 2.123-1.245 2.642-2.548.732-1.427.666-3.243.175-4.809-.659-1.61-1.786-2.803-3.213-3.535 0 0-4.575-2.452-22.765-6.475l-.505-.132-1.875-2.466 2.804-1.787.505.132c18.19 4.024 23.299 3.737 23.299 3.737 1.771.103 3.381-.556 4.574-1.684 1.193-1.127 1.969-2.723 2.027-4.326-.029-1.266-.439-2.452-1.442-3.433-.835-.936-1.969-1.412-3.192-1.551-.885-.051-1.859.234-2.415.988-.725.711-1.113 1.508-.995 2.438-.008.717.198 1.31.615 1.779a2.416 2.416 0 001.764.819c.337.088.761-.161 1.186-.41.256-.293.388-.798.519-1.303l2.657.154c.03 1.266-.446 2.4-1.383 3.235s-1.954 1.289-3.22 1.318c-1.435-.014-2.738-.534-3.697-1.683-.959-1.149-1.493-2.547-1.479-3.982.058-1.603.666-3.242 2.027-4.326 1.361-1.083 2.803-1.786 4.406-1.728 1.984-.022 3.916.841 5.337 2.29 1.42 1.45 2.159 3.44 2.013 5.38.103 2.364-1.017 4.59-2.722 6.303s-4.077 2.533-6.397 2.467c-.381.081-2.533.059-7.547-.709 5.007 1.486 6.771 2.305 7.233 2.605 2.057 1.076 3.77 2.781 4.59 5.153.864 2.203.754 4.691-.197 6.961zm-18.799-269.36c-2.321.803-3.467 3.284-2.495 5.56.803 2.321 3.284 3.468 5.56 2.496 2.321-.803 3.468-3.285 2.496-5.56-.804-2.322-3.454-3.423-5.561-2.496zm-4.94 6.577c-1.335-3.628.509-7.564 3.923-9.022 2.49-.848 5.005-.254 6.855 1.243.214.124 5.123 4.243 8.232 12.468 3.065 8.056 2.262 15.88 2.184 16.263l-2.424-.256s.893-7.486-2.036-15.035c-.984-2.997-2.294-5.182-3.514-7.029-.47 2.3-1.922 4.319-4.243 5.123-3.583 1.503-7.519-.341-8.977-3.755zm9.984 25.768c-2.445 1.017-4.959.423-6.81-1.074-.214-.124-5.122-4.244-8.232-12.469-3.064-8.055-2.262-15.879-2.184-16.263l2.424.257s-.893 7.485 2.036 15.034c1.108 2.783 2.249 5.014 3.469 6.861.47-2.3 1.922-4.32 4.243-5.123 3.628-1.334 7.519.341 8.853 3.969 1.459 3.413-.171 7.473-3.799 8.808zm-6.532-4.772c.803 2.321 3.453 3.423 5.56 2.496 2.321-.803 3.422-3.453 2.496-5.56-.804-2.321-3.454-3.423-5.561-2.496-2.152.758-3.298 3.239-2.495 5.56zM788.503 148.689c1.31 1.309 3.214 1.309 4.524 0 1.309-1.31 1.309-3.214 0-4.524-1.31-1.309-3.214-1.309-4.524 0-1.309 1.31-1.19 3.333 0 4.524zm6.666-6.666c2.5 2.5 2.381 6.428 0 8.808-2.5 2.5-6.428 2.381-8.808 0-1.309-1.309-1.905-3.095-1.786-4.88-1.785.119-3.571-.476-4.88-1.786l2.143-2.142c1.309 1.309 3.214 1.309 4.523 0l9.522-9.522c2.024-2.024 2.024-5.357.119-7.261l-1.19-1.191c-2.024-2.023-5.356-2.023-7.261-.119l-9.522 9.523-2.143-2.143 9.523-9.522.119-.119s.833-.833 1.309-2.262c.357-1.785 0-3.809-1.428-5.713l2.618-1.667c2.024 2.976 2.262 5.595 1.786 7.499 2.499-.357 5.118.357 7.142 2.381l1.19 1.19c3.214 3.214 3.214 8.451 0 11.665l-5.714 5.714a5.81 5.81 0 012.738 1.547zM577.13 6.625L573.131 21.9c1.694.404 3.427.643 5.251 1.252 2.541.606 4.703 1.296 6.827 2.151l4.038-15.44c-2.072-.319-4.443-.884-6.984-1.49a298.374 298.374 0 01-5.133-1.747zm-13.421 14.25c.169.04 2.867-.015 7.011.624l4.118-15.77c-3.987-1.299-6.37-2.565-6.5-2.77l1.189-1.985c.169.04 5.235 2.818 13.327 4.922 8.26 2.143 15.48 2.643 15.48 2.643l-.042 2.433c-.17-.04-2.829-.15-6.803-.75l-3.948 15.81c3.608 1.384 6.031 2.485 6.161 2.69l-1.059 2.191s-6.591-3.141-14.812-5.45c-8.261-2.144-14.126-2.32-14.126-2.32l.004-2.268z" fill="#fff"/></svg>