<svg width="1168" height="1168" fill="none" xmlns="http://www.w3.org/2000/svg"><circle cx="584" cy="584" r="583" stroke="#fff" stroke-width="2"/><circle cx="584" cy="584" r="509" stroke="#fff" stroke-width="2"/><circle cx="584" cy="584" r="422" stroke="#fff" stroke-width="2"/><path stroke="#fff" stroke-width="2" d="M499.989 6.853l11 74m46.01-78.894l3 74.001m54-73.906l-4 74m60.99-68.907l-11 74m66.978-62.892l-19 72m73.969-54.902l-26 69M833.9 57.436l-32 66m82.95-38.91l-39 63m85.945-31.92l-45 59m88.946-21.934l-49 54m88.929-13.931l-53.998 49m90.928-4.939l-59.002 44m90.912 4.058l-64 38m89.92 12.045l-66 31m87.92 21.031l-69 26m85.91 29.03l-71 19m81.9 37.02l-72 12m77.88 46.013l-73 3m72.92 54l-73-3m67.89 59.99l-73-11m60.88 67.974l-71-20m54.93 73.977l-69-25m46.9 77.96l-66-32m38.92 81.953l-62-38m30.93 85.953l-60.001-44m22.921 87.935l-54.002-49m12.925 89.929l-49-55.005m5.952 90.945l-45-59.004m-3.061 90.914l-38-63m-12.046 89.91l-32-67m-22.04 88.91l-25-70m-30.028 86.9l-18-72m-38.021 82.9l-10-73m-47.008 77.91l-4.054-73.99m-52.946 73.9l3-73m-60.99 66.89l11-73m-66.98 61.9l18-71m-72.967 53.9l26-69m-78.958 46.9l33-66m-82.962 38.93l38-63m-85.939 30.91l45-58.996m-88.945 22.936l50-55.003m-89.925 13.926l55-49m-90.933 4.945l59-44m-89.925-4.051l62-38m-89.908-12.049l67-32m-88.905-21.04l70-25m-86.903-30.029l73-18m-82.91-38.018l73-11M.96 610.001l74.002-2.96m-73.921-54.04l74.998 3.04m-68.89-60.03l73 11m-60.903-66.98l71 18m-54.898-72.968l70 26m-47.906-78.96l67 33m-38.919-82.956l62 38m-30.925-84.949l59 44m-21.926-87.939l54 49m-13.932-89.932l50 55M237.8 114.4l45 60m3.056-90.916l38 63m12.052-89.904l31 67m22.036-88.908l24 68.999m31.029-85.901l17 72"/><path d="M574.882 41.032l1.846-.246c.211 1.045.57 1.8 1.076 2.266.513.458 1.135.687 1.866.687.869 0 1.6-.301 2.195-.903.601-.601.902-1.346.902-2.235 0-.848-.277-1.545-.83-2.092-.554-.553-1.258-.83-2.113-.83-.348 0-.782.068-1.302.205l.205-1.62c.123.013.222.02.297.02a3.8 3.8 0 002.123-.615c.629-.41.943-1.042.943-1.897 0-.677-.229-1.237-.687-1.682-.458-.444-1.049-.666-1.774-.666-.717 0-1.316.225-1.794.677-.479.45-.786 1.127-.923 2.03l-1.846-.328c.226-1.238.739-2.195 1.538-2.871.8-.684 1.795-1.026 2.984-1.026.821 0 1.576.178 2.266.534.691.348 1.217.827 1.58 1.435.369.608.553 1.254.553 1.938 0 .65-.174 1.24-.523 1.774-.348.533-.864.957-1.548 1.271.889.206 1.579.633 2.071 1.282.492.643.739 1.45.739 2.42 0 1.313-.479 2.427-1.436 3.343-.957.909-2.167 1.364-3.63 1.364-1.319 0-2.416-.394-3.291-1.18-.869-.786-1.364-1.804-1.487-3.055zM592.478 45v-3.6h-6.522v-1.69l6.86-9.741h1.507v9.741h2.031v1.692h-2.031V45h-1.845zm0-5.291v-6.778l-4.707 6.778h4.707zm41.579 8.647l-1.844-.089.57-11.747c-.465.401-1.069.797-1.813 1.185-.738.388-1.398.675-1.982.858l.086-1.782a11.134 11.134 0 002.789-1.63c.805-.652 1.384-1.295 1.736-1.928l1.188.057-.73 15.076zm10.641.516l.174-3.595-6.514-.315.082-1.69 7.324-9.398 1.505.073-.471 9.73 2.028.098-.082 1.69-2.028-.098-.174 3.595-1.844-.09zm.256-5.285l.328-6.77-5.029 6.543 4.701.227zm40.621 11.323l.646-3.541-6.416-1.17.304-1.665 8.497-8.352 1.482.27-1.748 9.584 1.998.364-.304 1.665-1.997-.365-.646 3.54-1.816-.33zm.95-5.205l1.216-6.668-5.846 5.823 4.63.845zm5.452 2.339l1.86.089c.02 1.067.238 1.874.652 2.422.422.543.993.88 1.713 1.011.854.156 1.627-.009 2.32-.494.7-.484 1.13-1.163 1.289-2.037.152-.834.005-1.57-.442-2.207-.445-.644-1.088-1.043-1.929-1.196-.342-.063-.782-.073-1.317-.032l.492-1.557c.119.036.215.06.289.074a3.8 3.8 0 002.198-.225c.693-.29 1.116-.856 1.269-1.697.121-.665-.003-1.258-.374-1.777-.371-.52-.913-.844-1.626-.974-.706-.13-1.335-.015-1.886.343-.552.358-.976.969-1.273 1.832l-1.757-.654c.444-1.177 1.121-2.026 2.029-2.548.909-.53 1.949-.687 3.119-.474a4.881 4.881 0 012.134.932c.617.467 1.049 1.032 1.296 1.695.254.665.319 1.334.197 2.006a3.174 3.174 0 01-.833 1.651c-.439.462-1.023.787-1.751.973.837.362 1.44.906 1.807 1.633.369.72.466 1.558.292 2.513-.235 1.291-.906 2.302-2.012 3.031-1.105.723-2.376.953-3.816.69-1.298-.236-2.306-.82-3.026-1.75-.713-.93-1.018-2.02-.914-3.273zm50.966 18.413l-1.766-.54 3.435-11.248c-.549.276-1.232.51-2.049.704-.81.196-1.52.311-2.132.346l.521-1.706a11.142 11.142 0 003.104-.897c.941-.434 1.66-.916 2.156-1.443l1.138.347-4.407 14.437zm43.224 15.703l1.347-3.338-6.047-2.442.634-1.569 10.008-6.463 1.398.564-3.648 9.033 1.883.76-.634 1.569-1.882-.76-1.348 3.337-1.711-.692zm1.981-4.907l2.538-6.284-6.902 4.522 4.364 1.762zm8.857 9.284l1.348-3.337-6.047-2.443.634-1.568 10.008-6.464 1.398.565-3.648 9.032 1.883.76-.634 1.569-1.882-.76-1.348 3.337-1.712-.691zm1.982-4.906l2.538-6.285-6.902 4.522 4.364 1.763zm38.494 22.499l-.789 1.589-8.899-4.418c.185-.404.439-.755.763-1.052.527-.494 1.185-.912 1.972-1.253.794-.339 1.854-.66 3.18-.963 2.059-.474 3.519-.932 4.38-1.375.864-.448 1.451-.985 1.761-1.61a2.446 2.446 0 00.114-2.004c-.241-.684-.738-1.213-1.491-1.587-.796-.395-1.551-.472-2.266-.232-.714.24-1.285.782-1.71 1.624l-1.613-1.018c.746-1.21 1.662-1.957 2.75-2.241 1.09-.29 2.276-.118 3.555.517 1.292.641 2.137 1.507 2.534 2.597.398 1.09.334 2.165-.192 3.225a4.53 4.53 0 01-1.119 1.424c-.479.411-1.119.777-1.919 1.097-.794.323-2.034.692-3.72 1.107-1.406.34-2.323.59-2.754.751a5.855 5.855 0 00-1.14.544l6.603 3.278zm7.162-3.565c-.561-.591-.891-1.202-.991-1.831-.1-.63.012-1.269.334-1.918.486-.98 1.247-1.629 2.283-1.947 1.035-.317 2.137-.186 3.307.395 1.176.583 1.951 1.396 2.327 2.437.379 1.035.326 2.043-.161 3.023-.31.624-.746 1.087-1.307 1.388-.553.298-1.225.407-2.017.327.693.68 1.105 1.426 1.235 2.239.137.816-.001 1.64-.415 2.473-.571 1.151-1.458 1.916-2.662 2.296-1.203.379-2.469.239-3.798-.421-1.329-.659-2.206-1.583-2.631-2.771-.422-1.194-.342-2.379.242-3.555.435-.875 1.018-1.498 1.751-1.866.742-.373 1.576-.462 2.503-.269zm1.06-2.965c-.316.636-.369 1.259-.16 1.866.21.608.642 1.075 1.298 1.4.636.316 1.256.375 1.857.178a2.228 2.228 0 001.35-1.173c.301-.606.342-1.219.123-1.839-.21-.623-.627-1.09-1.251-1.4-.631-.313-1.255-.371-1.872-.174-.617.198-1.065.578-1.345 1.142zm-3.619 5.953a3.37 3.37 0 00-.349 1.533c.008.553.171 1.062.49 1.525.323.458.738.813 1.246 1.065.79.392 1.568.462 2.335.209.767-.253 1.344-.771 1.733-1.555.396-.796.456-1.586.182-2.371-.269-.782-.801-1.371-1.597-1.766-.777-.386-1.551-.449-2.321-.19-.763.262-1.336.779-1.719 1.55zm35.392 20.682l1.73.888c-.378.876-.474 1.655-.287 2.336.197.679.608 1.214 1.234 1.605.753.471 1.569.586 2.445.344.877-.242 1.609-.833 2.196-1.772.558-.893.746-1.755.564-2.586-.176-.827-.67-1.495-1.482-2.002a3.18 3.18 0 00-1.582-.505 3.083 3.083 0 00-1.511.289l-1.35-1.11 5.327-5.776 6.339 3.962-.935 1.495-5.087-3.179-2.828 2.997c1.099-.055 2.068.18 2.909.705 1.113.696 1.811 1.668 2.094 2.917.284 1.25.047 2.48-.71 3.692-.721 1.153-1.681 1.94-2.878 2.361-1.463.521-2.901.339-4.315-.545-1.16-.724-1.905-1.641-2.235-2.751-.325-1.105-.204-2.227.362-3.365zm11.755 3.247c.942-1.507 1.852-2.622 2.732-3.346.889-.726 1.794-1.149 2.714-1.267.926-.114 1.853.118 2.78.698.684.427 1.197.942 1.539 1.542.346.595.524 1.258.534 1.99.014.726-.117 1.523-.393 2.39-.273.862-.804 1.925-1.593 3.188-.935 1.496-1.844 2.609-2.727 3.338-.88.724-1.785 1.147-2.714 1.267-.92.118-1.847-.115-2.781-.698-1.229-.768-1.918-1.812-2.069-3.131-.178-1.586.481-3.576 1.978-5.971zm1.608 1.006c-1.307 2.092-1.935 3.639-1.883 4.639.062.998.452 1.721 1.171 2.17.718.449 1.539.478 2.46.087.928-.388 2.044-1.625 3.348-3.712 1.311-2.098 1.936-3.647 1.875-4.644-.056-.994-.449-1.72-1.18-2.176-.719-.449-1.483-.504-2.292-.163-1.025.44-2.191 1.706-3.499 3.799zm29.472 25.773l1.592.966c-.49.947-.685 1.761-.582 2.44.112.678.453 1.247 1.022 1.706.677.544 1.435.769 2.275.673.846-.091 1.548-.483 2.105-1.175.532-.66.754-1.377.665-2.15-.084-.779-.459-1.436-1.124-1.972-.272-.219-.653-.438-1.143-.657l1.176-1.133c.087.088.16.155.219.202a3.8 3.8 0 002.039.852c.747.075 1.388-.22 1.924-.886.425-.527.598-1.107.52-1.74-.078-.634-.399-1.177-.964-1.632-.559-.45-1.166-.649-1.822-.598-.656.051-1.32.385-1.992 1.002l-1.232-1.413c.952-.822 1.951-1.246 2.999-1.271 1.051-.031 2.041.326 2.967 1.072a4.884 4.884 0 011.431 1.837c.319.705.429 1.407.329 2.108a3.67 3.67 0 01-.784 1.857 3.174 3.174 0 01-1.52 1.054c-.606.196-1.274.203-2.003.019.563.717.833 1.483.809 2.297-.02.81-.334 1.592-.943 2.348-.823 1.023-1.894 1.59-3.214 1.704-1.316.107-2.543-.297-3.683-1.215-1.027-.827-1.635-1.822-1.824-2.983-.183-1.156.07-2.261.758-3.312zm15.276 15.118l-1.112 1.381-7.739-6.231a3.27 3.27 0 01.971-.864c.622-.368 1.354-.634 2.197-.798.848-.16 1.952-.245 3.312-.255 2.113-.019 3.637-.152 4.573-.399.941-.252 1.63-.65 2.067-1.193a2.44 2.44 0 00.542-1.933c-.087-.719-.458-1.343-1.113-1.87-.692-.558-1.413-.796-2.163-.715-.749.081-1.423.487-2.02 1.217l-1.355-1.341c.989-1.021 2.044-1.553 3.168-1.597 1.127-.048 2.247.375 3.36 1.271 1.124.905 1.762 1.933 1.915 3.083.154 1.15-.141 2.186-.882 3.107a4.523 4.523 0 01-1.4 1.15c-.557.298-1.26.518-2.11.658-.845.145-2.135.238-3.871.279-1.446.03-2.396.076-2.851.14a5.898 5.898 0 00-1.231.286l5.742 4.624zm24.292 19.987l1.499 1.239c-.558.774-.819 1.514-.783 2.22.046.705.332 1.316.859 1.833.635.622 1.406.909 2.315.862.908-.048 1.75-.467 2.525-1.258.737-.752 1.106-1.553 1.107-2.404.007-.846-.332-1.604-1.015-2.274a3.195 3.195 0 00-1.437-.834 3.082 3.082 0 00-1.538-.043l-1.079-1.374 6.445-4.494 5.338 5.233-1.235 1.26-4.283-4.2-3.407 2.318c1.085.182 1.981.621 2.689 1.315.937.918 1.409 2.018 1.417 3.299.008 1.281-.488 2.432-1.489 3.452-.952.971-2.058 1.533-3.318 1.686-1.541.194-2.906-.293-4.097-1.461-.976-.957-1.506-2.013-1.59-3.167-.079-1.15.28-2.219 1.077-3.208zm14.824 1.753l1.242-1.267 6.948 6.813-1.005 1.025c-1.396.057-3.022.358-4.878.904a24.884 24.884 0 00-5.199 2.197c-1.144.64-2.277 1.459-3.398 2.456l-1.354-1.328c.842-.83 2.008-1.688 3.498-2.573a22.549 22.549 0 014.75-2.12c1.687-.529 3.238-.847 4.653-.953l-5.257-5.154zm22.373 43.724l2.876-2.163-3.918-5.212 1.352-1.017 11.904-.37.91 1.204-7.79 5.854 1.22 1.623-1.35 1.016-1.22-1.622-2.875 2.162-1.109-1.475zm4.224-3.179l5.42-4.073-8.243.311 2.823 3.762zm7.47 5.165c-.24-.78-.26-1.474-.07-2.081.2-.607.58-1.129 1.16-1.564.88-.657 1.85-.896 2.92-.715 1.06.181 1.99.793 2.77 1.836.79 1.049 1.12 2.124.99 3.223-.13 1.095-.63 1.972-1.5 2.629-.56.419-1.15.637-1.79.654-.63.018-1.28-.186-1.95-.613.31.918.35 1.77.1 2.555-.24.791-.74 1.465-1.48 2.024-1.03.772-2.17 1.058-3.41.857-1.25-.201-2.32-.894-3.21-2.08-.89-1.186-1.26-2.405-1.1-3.657.15-1.257.76-2.28 1.81-3.068.78-.588 1.58-.882 2.4-.883.83 0 1.62.295 2.36.883zm2.28-2.174c-.57.427-.9.959-.99 1.597-.08.637.1 1.248.54 1.832.42.569.95.9 1.58.993.63.095 1.21-.052 1.73-.443.54-.406.85-.936.93-1.588.1-.651-.07-1.255-.49-1.812-.42-.563-.95-.895-1.59-.995-.64-.101-1.21.038-1.71.416zm-5.91 3.696c-.42.316-.75.721-1 1.213a2.775 2.775 0 00-.25 1.584c.09.553.3 1.057.64 1.51.53.705 1.19 1.117 1.99 1.235.8.118 1.55-.086 2.25-.612.71-.534 1.12-1.213 1.22-2.038.12-.819-.1-1.583-.63-2.294-.52-.694-1.18-1.098-1.99-1.212-.8-.108-1.54.096-2.23.614zm24.28 39.466l-.99-1.556 9.92-6.327c-.6-.147-1.27-.412-2.02-.794-.74-.377-1.36-.751-1.85-1.121l1.51-.96a11.04 11.04 0 002.94 1.333c1 .28 1.86.38 2.58.302l.64 1.003-12.73 8.12zm10.95 2.002c-.17-.796-.14-1.49.1-2.08.24-.591.66-1.081 1.27-1.471.92-.589 1.91-.752 2.96-.49s1.93.943 2.63 2.043c.71 1.107.95 2.203.74 3.289-.21 1.083-.78 1.918-1.7 2.506-.59.376-1.2.547-1.83.516-.63-.03-1.26-.283-1.9-.761.24.94.21 1.792-.1 2.556-.3.769-.84 1.404-1.63 1.904-1.08.692-2.24.889-3.46.594-1.23-.296-2.24-1.069-3.04-2.319-.8-1.251-1.07-2.495-.82-3.732.25-1.241.93-2.214 2.04-2.92.82-.526 1.64-.758 2.46-.696.83.064 1.59.417 2.28 1.061zm2.44-1.994c-.6.383-.97.888-1.1 1.517-.13.629 0 1.252.39 1.868.38.599.88.97 1.5 1.111.63.143 1.21.04 1.76-.309.57-.364.92-.868 1.05-1.512.15-.642.03-1.257-.35-1.845-.37-.593-.88-.965-1.51-1.114-.63-.149-1.21-.054-1.74.284zm-6.17 3.233a3.3 3.3 0 00-1.09 1.134c-.28.478-.4.998-.37 1.56.04.558.21 1.076.52 1.554.47.744 1.11 1.205 1.89 1.384.79.178 1.55.032 2.29-.438.75-.478 1.21-1.124 1.38-1.938.17-.808.02-1.587-.46-2.336-.47-.732-1.1-1.185-1.89-1.361-.79-.169-1.55-.022-2.27.441zm19.88 41.554l3.21-1.619-2.93-5.824 1.51-.761 11.79 1.742.67 1.346-8.69 4.384.91 1.813-1.51.761-.92-1.813-3.21 1.62-.83-1.649zm4.72-2.381l6.06-3.05-8.17-1.153 2.11 4.203zm12.32 10.981l-.95-1.575c.57-.472.94-.917 1.1-1.333.24-.682.2-1.35-.13-2.003a2.495 2.495 0 00-1.14-1.162c-.64-.328-1.39-.458-2.27-.391-.88.067-1.99.432-3.34 1.097.8.092 1.5.351 2.08.778.58.426 1.03.953 1.35 1.582.55 1.099.62 2.237.19 3.416-.41 1.181-1.26 2.095-2.54 2.741-.85.424-1.72.637-2.63.636-.91.003-1.71-.216-2.41-.657-.71-.441-1.26-1.064-1.67-1.87-.69-1.374-.75-2.748-.18-4.122.57-1.378 2.02-2.651 4.34-3.82 2.6-1.308 4.72-1.779 6.39-1.414 1.44.319 2.52 1.187 3.24 2.603.53 1.056.67 2.069.41 3.039-.25.976-.86 1.795-1.84 2.455zm-9.17-3.814c-.57.286-1.06.679-1.45 1.179-.4.505-.63 1.044-.68 1.616-.05.569.04 1.091.28 1.567.35.696.94 1.153 1.75 1.371.81.217 1.7.083 2.67-.403.92-.468 1.53-1.083 1.81-1.845.29-.765.24-1.523-.13-2.274a2.863 2.863 0 00-1.77-1.489c-.79-.252-1.62-.159-2.48.278zm29.04 47.623l-.59-1.742c.66-.339 1.11-.695 1.36-1.068a2.47 2.47 0 00.3-1.984 2.491 2.491 0 00-.86-1.377c-.55-.458-1.27-.748-2.14-.87-.87-.122-2.04-.003-3.5.357.77.262 1.39.664 1.87 1.205.48.541.8 1.152.98 1.834.3 1.192.12 2.318-.54 3.378-.66 1.065-1.69 1.776-3.08 2.133-.91.234-1.81.254-2.7.059-.88-.191-1.62-.577-2.22-1.158-.59-.582-1-1.31-1.22-2.184-.38-1.49-.15-2.845.7-4.065.86-1.222 2.55-2.156 5.06-2.802 2.82-.721 5-.726 6.54-.014 1.35.621 2.22 1.7 2.61 3.237.29 1.145.21 2.165-.24 3.058-.46.899-1.23 1.567-2.33 2.003zm-8.15-5.69c-.61.158-1.17.438-1.66.841-.5.409-.84.887-1.01 1.433a2.887 2.887 0 00-.06 1.592c.19.755.66 1.326 1.41 1.713.75.387 1.65.446 2.7.177 1-.258 1.72-.729 2.16-1.413.45-.686.57-1.436.36-2.25a2.868 2.868 0 00-1.4-1.832c-.72-.415-1.56-.502-2.5-.261zm11.96 50.079l3.53-.711-1.29-6.393 1.66-.334 10.91 4.798.29 1.478-9.55 1.926.41 1.99-1.66.334-.4-1.99-3.53.712-.37-1.81zm5.19-1.046l6.64-1.34-7.57-3.273.93 4.613zm8.78 4.243l1.74-.35 1.93 9.539-1.41.283c-1.19-.736-2.7-1.4-4.54-1.991a24.947 24.947 0 00-5.54-1.101c-1.31-.113-2.7-.072-4.19.123l-.38-1.859c1.17-.214 2.61-.269 4.34-.164 1.73.104 3.44.408 5.13.912 1.69.51 3.15 1.118 4.38 1.825l-1.46-7.217zm11.06 50.518l-.32-1.814c.71-.231 1.21-.513 1.51-.843.47-.547.68-1.184.61-1.912-.06-.585-.27-1.084-.64-1.495-.48-.538-1.14-.936-1.98-1.192-.84-.257-2.01-.321-3.51-.192.72.378 1.27.871 1.66 1.48.39.609.61 1.264.68 1.965.11 1.225-.24 2.309-1.06 3.252-.82.95-1.94 1.492-3.37 1.628a5.773 5.773 0 01-2.68-.363c-.84-.326-1.51-.822-2.01-1.489-.49-.667-.78-1.45-.87-2.348-.14-1.531.3-2.833 1.33-3.906 1.04-1.074 2.85-1.733 5.43-1.979 2.9-.275 5.05.06 6.47 1.004 1.23.824 1.92 2.025 2.07 3.604.11 1.177-.13 2.171-.72 2.983-.59.818-1.45 1.357-2.6 1.617zm-7.17-6.89c-.63.06-1.22.25-1.78.57-.55.327-.96.747-1.22 1.259a2.89 2.89 0 00-.3 1.564c.07.776.45 1.413 1.13 1.912.68.498 1.55.697 2.63.594 1.03-.098 1.82-.451 2.36-1.058.55-.608.78-1.331.7-2.168-.08-.83-.44-1.506-1.1-2.028-.65-.522-1.45-.737-2.42-.645zm-3.38 15.956l3.59-.34-.62-6.493 1.69-.16 10.34 5.909.14 1.5-9.69.921.19 2.021-1.69.16-.19-2.021-3.58.34-.18-1.837zm5.27-.5l6.75-.641-7.19-4.045.44 4.686zm2.21 40.155l3.6.042.08-6.521 1.69.02 9.66 6.974-.02 1.507-9.74-.114-.02 2.03-1.7-.02.03-2.03-3.6-.042.02-1.846zm5.29.062l6.78.08-6.72-4.786-.06 4.706zm2.06 5.798c1.77.02 3.2.218 4.28.593 1.08.382 1.91.935 2.49 1.66.58.731.86 1.644.85 2.738-.01.806-.18 1.512-.52 2.116-.33.605-.8 1.102-1.42 1.491-.61.389-1.36.692-2.25.907-.87.215-2.06.314-3.55.297-1.76-.021-3.18-.219-4.27-.594-1.07-.375-1.9-.928-2.49-1.66-.58-.724-.86-1.637-.85-2.737.02-1.449.55-2.581 1.6-3.396 1.26-.977 3.3-1.449 6.13-1.415zm-.03 1.896c-2.46-.029-4.11.239-4.94.804-.82.571-1.23 1.281-1.24 2.128-.01.848.39 1.564 1.2 2.148.82.59 2.45.9 4.91.929 2.48.029 4.13-.242 4.95-.814.82-.565 1.23-1.277 1.24-2.139.01-.847-.34-1.528-1.05-2.043-.91-.646-2.6-.984-5.07-1.013zm-1.31 40.374l.14 1.94c-.95.132-1.66.456-2.14.969a2.698 2.698 0 00-.73 1.889c-.02.889.31 1.644.97 2.268.67.623 1.55.941 2.66.954 1.05.012 1.89-.276 2.5-.863.62-.581.93-1.35.94-2.307a3.132 3.132 0 00-.39-1.614 3.126 3.126 0 00-1.03-1.14l.24-1.731 7.71 1.547-.09 7.474-1.77-.02.08-5.998-4.04-.858c.62.91.93 1.86.91 2.852-.01 1.312-.48 2.414-1.4 3.306-.92.891-2.09 1.329-3.52 1.312-1.36-.016-2.53-.426-3.51-1.231-1.21-.978-1.8-2.301-1.78-3.969.01-1.367.41-2.48 1.19-3.339.77-.852 1.79-1.333 3.06-1.441zm-.6 11.96l.14 1.776c-.84.141-1.44.421-1.83.84-.38.419-.57.961-.58 1.624 0 .567.12 1.064.37 1.491.26.434.6.79 1.03 1.068.43.279 1.02.515 1.75.708.74.193 1.49.294 2.26.303.08.001.2-.001.36-.006a4.253 4.253 0 01-1.41-1.534 4.05 4.05 0 01-.52-2.078c.01-1.244.48-2.291 1.39-3.142.91-.851 2.1-1.267 3.58-1.25 1.53.018 2.75.48 3.67 1.386.92.914 1.37 2.047 1.35 3.4a4.748 4.748 0 01-.82 2.667c-.54.807-1.29 1.414-2.28 1.819-.97.413-2.38.608-4.23.586-1.92-.022-3.45-.248-4.58-.679-1.13-.43-1.99-1.062-2.58-1.896-.58-.828-.87-1.795-.86-2.902.02-1.176.35-2.132 1.01-2.87.67-.737 1.59-1.174 2.78-1.311zm6.54 7.635c1.06.012 1.91-.262 2.53-.822.63-.553.95-1.226.96-2.019.01-.82-.32-1.538-.98-2.155-.66-.616-1.53-.93-2.59-.943-.96-.011-1.74.267-2.35.834-.6.574-.91 1.285-.92 2.133-.01.854.28 1.558.87 2.112.59.561 1.42.847 2.48.86zm-9.93 43.221l-1.77-.059.33-9.93c.44.001.87.087 1.27.257.67.276 1.32.701 1.96 1.277.64.582 1.37 1.413 2.19 2.494 1.29 1.678 2.31 2.816 3.07 3.416.77.6 1.5.912 2.19.935.74.025 1.36-.218 1.88-.727.52-.502.79-1.174.82-2.014.03-.888-.21-1.608-.73-2.158-.51-.551-1.24-.846-2.18-.884l.26-1.889c1.41.177 2.47.701 3.17 1.573.72.872 1.06 2.022 1.01 3.45-.05 1.441-.49 2.569-1.32 3.383-.82.813-1.83 1.2-3.01 1.161-.6-.02-1.19-.163-1.76-.428-.57-.265-1.17-.696-1.79-1.291-.63-.589-1.48-1.564-2.55-2.927-.89-1.138-1.5-1.87-1.83-2.195a5.545 5.545 0 00-.97-.812l-.24 7.368zm1.62 2.322l.11 1.778c-.84.123-1.45.39-1.84.801-.39.411-.6.947-.62 1.61-.02.567.09 1.067.34 1.499.24.439.58.803 1 1.09.43.288 1.01.537 1.74.746.73.209 1.48.326 2.24.352.08.003.21.003.37.002a4.319 4.319 0 01-1.38-1.565 4.174 4.174 0 01-.48-2.088c.05-1.243.53-2.281 1.46-3.111.93-.831 2.14-1.222 3.61-1.172 1.53.05 2.74.539 3.64 1.465.89.933 1.32 2.076 1.28 3.428-.04.977-.33 1.86-.88 2.649-.56.795-1.33 1.385-2.32 1.769-.98.391-2.4.556-4.24.495-1.92-.065-3.44-.324-4.57-.779-1.12-.455-1.97-1.105-2.53-1.952-.57-.839-.83-1.813-.8-2.919.04-1.176.4-2.125 1.07-2.848.68-.722 1.62-1.139 2.8-1.25zm6.38 7.774c1.06.036 1.91-.22 2.55-.766.64-.54.98-1.206 1-1.998.03-.82-.28-1.545-.93-2.176-.65-.63-1.51-.963-2.57-.999-.96-.032-1.75.229-2.37.783-.61.561-.93 1.265-.96 2.112-.03.854.24 1.565.82 2.131.58.573 1.4.878 2.46.913zm-18.74 44.354l3.58.35.64-6.491 1.68.164 9.03 7.775-.15 1.5-9.69-.947-.2 2.021-1.68-.165.2-2.02-3.59-.35.18-1.837zm5.27.514l6.74.659-6.28-5.343-.46 4.684zm-3.84 48.846l1.73.356-1.95 9.533-1.41-.288c-.8-1.142-1.94-2.345-3.4-3.608a24.88 24.88 0 00-4.67-3.176c-1.16-.614-2.46-1.122-3.9-1.523l.38-1.858c1.15.257 2.5.772 4.05 1.544 1.56.771 3.01 1.718 4.36 2.84 1.36 1.13 2.47 2.261 3.33 3.392l1.48-7.212zm-23.95 41.926l-.4 1.818c-1.05-.158-1.88-.079-2.49.238-.61.325-1.04.831-1.29 1.518-.29.816-.26 1.606.1 2.371.36.771.96 1.308 1.79 1.612.8.29 1.55.268 2.25-.065.71-.331 1.21-.898 1.51-1.701.11-.328.2-.759.25-1.294l1.45.746c-.05.111-.1.202-.12.273a3.795 3.795 0 00-.15 2.205c.17.731.66 1.243 1.46 1.535.64.231 1.24.208 1.82-.071.57-.278.98-.758 1.23-1.439.25-.675.24-1.314-.02-1.918-.26-.604-.79-1.124-1.6-1.561l.94-1.622c1.09.635 1.81 1.444 2.18 2.427.37.985.35 2.036-.06 3.154-.28.771-.71 1.42-1.28 1.947-.56.53-1.19.861-1.88.994a3.71 3.71 0 01-2.02-.143 3.14 3.14 0 01-1.48-1.097c-.39-.51-.61-1.14-.67-1.89-.5.765-1.13 1.268-1.91 1.508-.77.243-1.62.199-2.53-.133-1.23-.449-2.11-1.28-2.65-2.492-.53-1.21-.54-2.503-.04-3.878.45-1.239 1.2-2.136 2.23-2.69 1.04-.547 2.17-.664 3.38-.352zm-3.99 10.985l-.4 1.819c-1.06-.159-1.89-.08-2.5.237-.61.325-1.03.831-1.28 1.519-.3.815-.27 1.606.09 2.37.36.771.96 1.309 1.8 1.612.79.29 1.54.268 2.25-.065.71-.331 1.21-.898 1.5-1.701.12-.328.2-.759.25-1.294l1.45.747c-.05.11-.09.201-.12.272a3.792 3.792 0 00-.14 2.205c.17.731.65 1.243 1.46 1.535.63.231 1.24.208 1.81-.071.58-.278.99-.758 1.23-1.439.25-.674.24-1.314-.02-1.918-.26-.604-.79-1.124-1.59-1.561l.94-1.622c1.08.635 1.81 1.444 2.17 2.427.37.985.35 2.037-.06 3.154-.28.771-.7 1.42-1.27 1.948-.57.529-1.2.86-1.89.993-.7.139-1.37.091-2.01-.142a3.17 3.17 0 01-1.49-1.098c-.38-.51-.6-1.14-.67-1.89-.49.765-1.13 1.268-1.91 1.508-.77.243-1.61.199-2.52-.133-1.24-.449-2.12-1.279-2.65-2.492-.53-1.21-.55-2.503-.05-3.877.46-1.24 1.2-2.137 2.24-2.69 1.03-.548 2.16-.665 3.38-.353zm-17.99 37.112l-.57 1.774c-1.03-.255-1.87-.252-2.51.007-.63.268-1.1.733-1.42 1.394-.37.785-.41 1.575-.12 2.37.29.8.84 1.39 1.64 1.77.77.361 1.52.409 2.25.141.73-.264 1.29-.783 1.65-1.556.15-.315.27-.737.37-1.265l1.38.877c-.07.106-.12.192-.15.26-.33.711-.45 1.439-.35 2.182.11.744.54 1.298 1.32 1.663.61.289 1.21.321 1.81.096.6-.224 1.05-.664 1.36-1.319.31-.65.36-1.287.15-1.912-.2-.625-.68-1.192-1.44-1.701l1.09-1.529c1.02.732 1.66 1.604 1.94 2.616.27 1.015.16 2.06-.35 3.136a4.842 4.842 0 01-1.45 1.822c-.61.476-1.27.747-1.97.815a3.668 3.668 0 01-1.99-.326 3.135 3.135 0 01-1.38-1.23c-.34-.543-.5-1.19-.49-1.943-.57.716-1.25 1.159-2.04 1.326-.8.171-1.63.05-2.51-.365-1.18-.56-1.99-1.468-2.41-2.724-.41-1.254-.31-2.542.32-3.865.56-1.193 1.38-2.018 2.47-2.474 1.08-.449 2.21-.463 3.4-.04zm-11.54 15.156l.78-1.669 10.64 5.019c-.19-.583-.33-1.292-.4-2.128-.08-.83-.09-1.55-.04-2.16l1.62.761c0 1.141.14 2.208.44 3.201.29.993.66 1.774 1.11 2.342l-.5 1.075-13.65-6.441zm-14.98 30.999l-.96 1.69c-.86-.416-1.63-.545-2.32-.388-.69.167-1.24.554-1.66 1.163-.5.732-.65 1.542-.45 2.428.21.887.77 1.643 1.68 2.27.87.597 1.72.822 2.56.676.83-.14 1.52-.604 2.06-1.393.34-.49.53-1.01.57-1.559a2.987 2.987 0 00-.22-1.522l1.17-1.301 5.54 5.572-4.23 6.162-1.46-.999 3.4-4.944-2.87-2.956c0 1.1-.27 2.059-.83 2.876-.75 1.081-1.75 1.737-3.01 1.966-1.26.229-2.48-.061-3.66-.87-1.12-.771-1.86-1.763-2.23-2.978-.46-1.484-.21-2.913.73-4.288.78-1.126 1.72-1.831 2.85-2.113 1.12-.276 2.23-.107 3.34.508zm-5.93 21.726l.92-1.594c.69.275 1.26.382 1.7.319a2.414 2.414 0 001.69-1.074c.34-.484.49-1.003.48-1.555-.02-.719-.28-1.446-.76-2.183-.48-.737-1.33-1.537-2.57-2.399.31.749.42 1.481.32 2.197a4.435 4.435 0 01-.73 1.943c-.7 1.015-1.67 1.619-2.9 1.814-1.24.205-2.45-.099-3.63-.912a5.786 5.786 0 01-1.83-1.999c-.43-.789-.63-1.599-.58-2.429.05-.83.33-1.616.84-2.36.87-1.268 2.04-1.983 3.52-2.144 1.49-.157 3.3.499 5.44 1.97 2.4 1.645 3.83 3.284 4.31 4.915.42 1.423.18 2.787-.72 4.095-.67.974-1.49 1.584-2.46 1.828-.98.25-1.99.106-3.04-.432zm-1.07-9.881c-.53-.36-1.1-.595-1.73-.704-.64-.104-1.22-.043-1.75.183-.52.23-.93.564-1.23 1.004-.44.642-.56 1.372-.36 2.19.2.819.74 1.533 1.63 2.145.86.588 1.69.823 2.49.703.81-.116 1.46-.52 1.93-1.213.47-.687.63-1.441.46-2.26-.16-.816-.64-1.499-1.44-2.048zm-24.23 43.73l1.03-1.526c.67.323 1.23.468 1.67.437a2.464 2.464 0 001.77-.953c.36-.46.56-.966.58-1.518.03-.719-.17-1.462-.6-2.231-.43-.768-1.23-1.626-2.4-2.573.26.769.31 1.507.17 2.215a4.324 4.324 0 01-.87 1.887c-.77.963-1.77 1.499-3.02 1.607-1.25.118-2.43-.27-3.56-1.163a5.743 5.743 0 01-1.68-2.122c-.38-.818-.52-1.639-.41-2.463.11-.825.44-1.59 1-2.296.96-1.204 2.18-1.835 3.67-1.893 1.49-.053 3.25.728 5.29 2.345 2.27 1.808 3.59 3.543 3.95 5.204.32 1.448-.02 2.792-1 4.034-.74.925-1.6 1.476-2.59 1.652-.99.181-1.99-.033-3-.643zm-.38-9.932c-.5-.396-1.06-.67-1.68-.823-.62-.148-1.21-.127-1.75.061-.54.193-.97.498-1.3.915-.49.61-.66 1.33-.51 2.16.14.83.63 1.582 1.48 2.254.81.647 1.62.938 2.43.875.82-.059 1.49-.418 2.01-1.076.52-.652.73-1.393.62-2.223-.11-.825-.54-1.539-1.3-2.143zm-14.466 13.217l-1.388-1.104 6.184-7.777c.356.266.646.588.869.966.372.619.643 1.35.812 2.192.169.847.259 1.951.279 3.311.03 2.112.17 3.636.42 4.57.26.939.66 1.625 1.21 2.059a2.43 2.43 0 001.93.531c.72-.092 1.35-.467 1.87-1.125.55-.695.79-1.418.7-2.167-.09-.749-.5-1.42-1.23-2.012l1.33-1.364c1.03.983 1.57 2.035 1.62 3.158.06 1.127-.36 2.25-1.25 3.368-.9 1.129-1.92 1.774-3.07 1.934-1.15.161-2.19-.127-3.11-.863a4.55 4.55 0 01-1.163-1.393c-.301-.555-.525-1.256-.671-2.106-.149-.844-.25-2.134-.302-3.869-.039-1.446-.091-2.396-.158-2.85a5.904 5.904 0 00-.293-1.229l-4.589 5.77zm-19.654 25.328l-1.262 1.479c-.766-.569-1.501-.842-2.207-.817-.706.035-1.321.312-1.846.831-.632.625-.932 1.391-.898 2.3.033.909.439 1.758 1.218 2.545.74.749 1.536 1.13 2.386 1.145.846.019 1.609-.308 2.29-.981.423-.418.708-.892.856-1.423a3.087 3.087 0 00.067-1.537l1.391-1.058 4.393 6.514-5.315 5.256-1.24-1.254 4.265-4.218-2.264-3.442c-.2 1.082-.652 1.971-1.357 2.668-.933.923-2.04 1.378-3.321 1.366-1.281-.012-2.424-.526-3.428-1.542-.957-.968-1.501-2.082-1.634-3.345-.171-1.543.337-2.901 1.524-4.073.972-.962 2.036-1.475 3.191-1.541 1.151-.061 2.215.314 3.191 1.127zm-8.298 8.248l-1.139 1.473c-.886-.595-1.672-.88-2.359-.855-.687.035-1.29.31-1.81.824-.617.61-.926 1.338-.926 2.184-.005.851.305 1.592.93 2.224.596.603 1.283.904 2.061.904.783.004 1.479-.294 2.086-.895.248-.245.509-.599.782-1.061l.993 1.296a2.727 2.727 0 00-.225.195 3.8 3.8 0 00-1.077 1.929c-.159.734.062 1.405.663 2.013.476.481 1.032.719 1.671.712.638-.006 1.214-.263 1.73-.773.51-.504.777-1.085.8-1.743.023-.657-.234-1.354-.771-2.092l1.543-1.065c.709 1.039 1.018 2.08.925 3.123-.088 1.049-.555 1.991-1.401 2.828a4.895 4.895 0 01-1.987 1.214c-.736.237-1.446.267-2.132.089a3.678 3.678 0 01-1.756-.989 3.171 3.171 0 01-.875-1.629c-.127-.624-.058-1.288.207-1.993-.776.479-1.568.661-2.374.545-.802-.111-1.544-.511-2.227-1.202-.923-.933-1.366-2.062-1.329-3.386.041-1.319.582-2.493 1.622-3.522.938-.927 1.995-1.419 3.17-1.475 1.17-.052 2.238.324 3.205 1.127zm-29.759 28.35l-1.291 1.342c-.817-.686-1.568-1.054-2.254-1.103-.686-.039-1.315.17-1.888.625-.679.541-1.064 1.232-1.155 2.07-.096.85.133 1.62.687 2.31.527.67 1.178 1.04 1.952 1.12.778.09 1.502-.13 2.17-.66.273-.22.57-.54.891-.97l.849 1.39c-.105.07-.187.12-.246.17a3.801 3.801 0 00-1.277 1.8c-.237.72-.089 1.41.443 2.08.422.52.95.82 1.585.88.635.07 1.236-.13 1.803-.58.562-.45.889-1 .982-1.65.094-.65-.087-1.37-.542-2.16l1.648-.89c.595 1.11.789 2.17.585 3.2-.2 1.03-.765 1.92-1.696 2.66-.642.51-1.343.84-2.105 1-.757.15-1.467.11-2.129-.14a3.685 3.685 0 01-1.641-1.18 3.12 3.12 0 01-.695-1.71c-.06-.63.08-1.29.419-1.96-.823.39-1.629.49-2.418.29-.786-.2-1.481-.68-2.085-1.43-.818-1.03-1.137-2.2-.959-3.51.183-1.311.846-2.42 1.991-3.332 1.032-.821 2.135-1.197 3.309-1.127 1.169.074 2.191.563 3.067 1.465zm-9.661 7.064l-1.286 1.23c-.637-.56-1.238-.85-1.804-.88-.566-.03-1.108.16-1.627.57-.444.35-.751.76-.92 1.23a3.18 3.18 0 00-.182 1.47c.059.51.246 1.11.561 1.81.315.69.712 1.34 1.188 1.93.051.07.131.16.238.29-.077-.69.021-1.38.294-2.07.271-.68.699-1.25 1.282-1.72.973-.77 2.078-1.07 3.314-.9 1.235.17 2.313.83 3.233 1.98.949 1.2 1.363 2.43 1.241 3.72-.127 1.29-.72 2.36-1.779 3.2-.764.61-1.626.96-2.585 1.05-.964.09-1.914-.11-2.849-.62-.936-.49-1.979-1.46-3.129-2.91-1.196-1.5-1.986-2.83-2.371-3.98-.381-1.15-.432-2.21-.156-3.19.272-.98.841-1.81 1.707-2.5.92-.73 1.874-1.08 2.861-1.03.992.04 1.915.49 2.769 1.32zm-1.781 9.89c.66.83 1.406 1.31 2.237 1.45.826.14 1.549-.04 2.169-.54.642-.51.993-1.21 1.051-2.12.059-.9-.244-1.77-.908-2.6-.596-.75-1.306-1.18-2.13-1.3-.825-.1-1.569.11-2.232.64-.668.53-1.031 1.2-1.089 2.01-.059.81.242 1.63.902 2.46zm-31.003 15.42l-1.528 1.2c-.639-.7-1.307-1.11-2.004-1.23-.699-.1-1.357.05-1.973.46-.742.48-1.185 1.18-1.33 2.08-.145.89.088 1.81.697 2.73.58.88 1.286 1.41 2.117 1.59.826.18 1.638.01 2.437-.52.496-.32.869-.73 1.118-1.22.253-.49.375-.99.366-1.5l1.571-.76 3.035 7.24-6.24 4.12-.971-1.47 5.008-3.31-1.549-3.81c-.407 1.02-1.024 1.8-1.851 2.35-1.096.72-2.271.95-3.525.69-1.253-.26-2.274-.99-3.06-2.18-.749-1.14-1.066-2.34-.949-3.6.134-1.55.898-2.78 2.29-3.7 1.142-.75 2.285-1.05 3.432-.89 1.14.17 2.11.74 2.909 1.73zm-19.047 9.97l-.977-1.48 8.295-5.47c.256.36.431.76.526 1.19.161.7.191 1.48.091 2.33-.107.86-.363 1.94-.767 3.24-.626 2.01-.965 3.51-1.015 4.47-.046.98.122 1.75.506 2.34.403.61.961.97 1.675 1.1.713.14 1.42-.03 2.122-.49.742-.49 1.188-1.1 1.34-1.84.151-.74-.03-1.5-.543-2.3l1.69-.88c.671 1.26.856 2.42.555 3.51-.298 1.08-1.043 2.02-2.235 2.81-1.204.79-2.378 1.09-3.52.88-1.142-.2-2.039-.8-2.69-1.78a4.59 4.59 0 01-.668-1.69c-.115-.62-.109-1.36.016-2.21.12-.85.425-2.1.915-3.77.412-1.39.658-2.31.736-2.76.081-.45.116-.87.103-1.26l-6.155 4.06zm-34.683 17.34l1.596-.92 5.909 10.17c.172-.59.464-1.25.878-1.98.407-.73.806-1.33 1.196-1.8l.897 1.54c-.649.94-1.134 1.9-1.455 2.88-.321.99-.457 1.84-.409 2.57l-1.028.59-7.584-13.05zm-2.117 5.79l-1.593 1.11c-.598-.74-1.242-1.19-1.932-1.34-.692-.14-1.357-.03-1.996.34-.768.45-1.25 1.11-1.445 2-.195.89-.015 1.81.541 2.77.529.91 1.204 1.48 2.024 1.71.814.23 1.634.1 2.462-.38.514-.3.909-.68 1.186-1.16.279-.47.429-.96.449-1.47l1.612-.68 2.621 7.41-6.464 3.76-.886-1.53 5.187-3.01-1.33-3.9c-.464.99-1.125 1.74-1.982 2.24-1.134.66-2.32.82-3.557.49-1.237-.33-2.215-1.12-2.932-2.35-.684-1.18-.932-2.39-.744-3.65.222-1.54 1.054-2.72 2.496-3.56 1.182-.69 2.341-.92 3.476-.69 1.129.23 2.065.86 2.807 1.89zm-45.542 17.64l1.696-.73 4.63 10.81c.242-.56.612-1.18 1.111-1.86.493-.67.962-1.22 1.406-1.64l.703 1.64c-.758.86-1.356 1.75-1.795 2.69-.438.94-.677 1.77-.717 2.49l-1.093.47-5.941-13.87zm-12.574 7.31l-.698-1.63 9.133-3.91c.188.4.29.82.307 1.26.034.72-.074 1.49-.325 2.32-.257.82-.7 1.83-1.329 3.04-.974 1.88-1.572 3.28-1.793 4.23-.218.95-.19 1.74.084 2.38.288.67.772 1.14 1.453 1.39.676.26 1.401.22 2.174-.11.817-.35 1.366-.87 1.646-1.57.28-.7.238-1.49-.127-2.36l1.82-.57c.438 1.36.412 2.54-.076 3.55-.486 1.02-1.386 1.81-2.699 2.37-1.326.57-2.533.65-3.621.25-1.088-.41-1.864-1.15-2.33-2.24a4.492 4.492 0 01-.359-1.78c-.002-.63.134-1.35.409-2.17.269-.81.792-1.99 1.57-3.55.652-1.29 1.056-2.15 1.213-2.58.16-.43.269-.83.325-1.22l-6.777 2.9zm-36.353 9.88l1.127 3.42 6.194-2.04.529 1.61-3.464 11.4-1.432.47-3.05-9.25-1.928.63-.53-1.6 1.928-.64-1.127-3.42 1.753-.58zm1.657 5.03l2.122 6.44 2.348-7.91-4.47 1.47zm-5.907.52l-1.789.76c-.431-.85-.969-1.42-1.612-1.71a2.766 2.766 0 00-2.023-.08c-.844.28-1.454.83-1.828 1.66-.375.83-.388 1.77-.042 2.82.33 1 .873 1.7 1.628 2.09.749.39 1.578.44 2.486.14a3.124 3.124 0 001.401-.89c.371-.4.619-.85.744-1.35l1.716-.33 1.035 7.79-7.099 2.34-.552-1.67 5.696-1.88-.495-4.09c-.66.88-1.461 1.47-2.402 1.78-1.247.42-2.441.33-3.583-.25-1.141-.58-1.936-1.55-2.383-2.91-.426-1.29-.418-2.53.025-3.72.534-1.46 1.593-2.45 3.177-2.97 1.299-.43 2.48-.41 3.544.04 1.058.46 1.844 1.27 2.356 2.43zm-40.339 10.57l-1.775.56c-.39-1-.874-1.68-1.453-2.05-.584-.36-1.237-.48-1.957-.35-.855.15-1.523.57-2.005 1.27-.488.7-.655 1.48-.501 2.36.147.83.541 1.47 1.181 1.91.641.45 1.383.6 2.224.45.344-.06.759-.2 1.247-.42l.079 1.63c-.123.01-.222.02-.296.03-.774.14-1.435.46-1.984.97-.548.52-.748 1.19-.6 2.04.118.66.441 1.17.969 1.53.528.36 1.149.48 1.862.35.707-.12 1.257-.45 1.65-.98.393-.52.579-1.24.557-2.16l1.874.01c-.007 1.25-.346 2.29-1.016 3.09-.669.81-1.59 1.32-2.761 1.53-.808.14-1.583.1-2.324-.13-.741-.23-1.342-.61-1.804-1.14a3.688 3.688 0 01-.882-1.82 3.146 3.146 0 01.207-1.83c.251-.59.686-1.1 1.305-1.52-.911-.05-1.665-.35-2.263-.91-.596-.54-.978-1.3-1.146-2.25-.228-1.3.05-2.48.834-3.54.784-1.07 1.897-1.72 3.338-1.98 1.299-.23 2.448-.03 3.446.59.991.63 1.656 1.54 1.994 2.76zm-11.507 1.99l-1.88.5c-.305-.91-.755-1.55-1.35-1.93-.6-.37-1.264-.5-1.991-.37-.875.16-1.557.62-2.047 1.38-.49.77-.639 1.7-.447 2.79.183 1.04.62 1.8 1.311 2.3.685.5 1.498.66 2.441.5.586-.11 1.09-.34 1.514-.69.425-.34.735-.75.93-1.22l1.745-.08-.094 7.85-7.362 1.3-.306-1.74 5.908-1.04.097-4.12c-.78.78-1.658 1.25-2.634 1.43-1.293.22-2.462-.03-3.509-.77-1.046-.74-1.693-1.81-1.941-3.22-.236-1.34-.049-2.57.56-3.68.738-1.36 1.928-2.19 3.571-2.48 1.346-.24 2.514-.06 3.501.55.981.6 1.642 1.52 1.983 2.74zm-48.2 3.82l1.836-.19 1.251 11.69c.397-.47.933-.95 1.608-1.45.669-.5 1.277-.88 1.826-1.15l.189 1.77c-.974.59-1.809 1.27-2.504 2.04-.694.77-1.167 1.5-1.417 2.18l-1.183.12-1.606-15.01zm-13.025 12.81l1.81-.33c.24.7.527 1.2.861 1.49.552.47 1.192.67 1.919.59.585-.06 1.08-.28 1.487-.65.533-.49.923-1.15 1.169-2 .247-.84.297-2.01.15-3.51-.37.72-.856 1.28-1.461 1.67a4.39 4.39 0 01-1.956.71c-1.223.13-2.312-.21-3.265-1.02-.959-.81-1.515-1.92-1.668-3.35-.1-.94.01-1.83.332-2.69.315-.84.803-1.52 1.464-2.02.661-.5 1.44-.8 2.338-.9 1.529-.16 2.836.26 3.921 1.28 1.086 1.03 1.768 2.83 2.044 5.41.309 2.89 0 5.05-.927 6.48-.809 1.24-2.002 1.94-3.579 2.11-1.175.13-2.173-.1-2.991-.68-.825-.58-1.374-1.44-1.648-2.59zm6.804-7.24a4.32 4.32 0 00-.592-1.77c-.333-.55-.758-.95-1.273-1.21a2.8 2.8 0 00-1.567-.28c-.775.08-1.408.46-1.898 1.15-.491.68-.679 1.56-.564 2.64.111 1.03.473 1.81 1.087 2.34.615.54 1.34.77 2.176.68a2.838 2.838 0 002.014-1.12c.515-.66.72-1.47.617-2.43zm-48.699-1.39l.028-1.77 9.934.15c.007.45-.071.88-.235 1.28-.263.68-.677 1.34-1.241 1.98-.571.65-1.389 1.4-2.455 2.24-1.655 1.32-2.775 2.36-3.361 3.13-.587.78-.886 1.51-.896 2.21-.012.73.242 1.35.76 1.86.512.51 1.188.77 2.029.79.888.01 1.603-.24 2.145-.77.541-.52.823-1.26.844-2.2l1.894.22c-.152 1.42-.658 2.49-1.517 3.21-.859.73-2.003 1.09-3.431 1.07-1.443-.03-2.578-.45-3.406-1.26-.828-.81-1.233-1.81-1.215-2.99.01-.6.142-1.19.397-1.77.255-.58.675-1.18 1.259-1.81.578-.64 1.538-1.51 2.882-2.61 1.121-.91 1.842-1.53 2.162-1.86.319-.32.584-.65.795-.98l-7.372-.12zm-2.077 5.61c-.028 1.78-.232 3.2-.611 4.28-.386 1.08-.942 1.91-1.669 2.48-.734.58-1.648.86-2.741.84-.807-.01-1.512-.18-2.115-.52a4.016 4.016 0 01-1.485-1.43c-.387-.61-.686-1.36-.898-2.25-.212-.88-.306-2.06-.283-3.55.028-1.77.231-3.19.61-4.27.38-1.07.936-1.9 1.67-2.49.727-.57 1.64-.85 2.741-.83 1.449.02 2.579.56 3.39 1.61.971 1.26 1.435 3.31 1.391 6.13zm-1.897-.03c.039-2.47-.223-4.11-.784-4.94-.568-.83-1.276-1.24-2.124-1.26-.847-.01-1.565.39-2.152 1.2-.593.81-.91 2.45-.948 4.91-.039 2.47.226 4.12.794 4.94.562.83 1.273 1.24 2.134 1.26.848.01 1.53-.34 2.047-1.05.65-.9.994-2.59 1.033-5.06zm-48.832-.96c.748.32 1.292.76 1.631 1.29.339.54.488 1.18.447 1.9-.062 1.09-.506 1.99-1.333 2.69-.828.7-1.893 1.01-3.197.93-1.31-.07-2.343-.51-3.098-1.32-.755-.8-1.102-1.75-1.04-2.84.04-.7.258-1.3.656-1.8.391-.49.966-.85 1.726-1.09-.904-.35-1.576-.88-2.016-1.57-.447-.7-.643-1.51-.591-2.44.073-1.28.588-2.33 1.545-3.16.958-.82 2.177-1.19 3.658-1.1 1.481.08 2.651.59 3.509 1.51.857.93 1.249 2.05 1.175 3.36-.056.98-.348 1.78-.876 2.41-.536.63-1.268 1.04-2.196 1.23zm.191 3.14c.04-.71-.155-1.3-.587-1.78-.432-.47-1.013-.73-1.743-.77-.71-.04-1.303.15-1.778.56-.483.43-.743.97-.78 1.61-.038.68.165 1.26.61 1.74.438.49 1.005.76 1.701.8.703.04 1.299-.15 1.789-.58.49-.42.752-.95.788-1.58zm.987-6.89c.03-.53-.064-1.04-.282-1.55a2.67 2.67 0 00-1.05-1.21 3.311 3.311 0 00-1.565-.49c-.88-.05-1.623.19-2.228.73-.606.53-.933 1.23-.983 2.11-.05.89.205 1.64.766 2.25.554.61 1.274.95 2.162 1 .866.04 1.603-.2 2.209-.74.599-.54.922-1.24.971-2.1zm-54.776-10.6l.201-1.76 9.872 1.12c-.037.45-.157.86-.359 1.25-.328.65-.804 1.26-1.429 1.85-.631.59-1.518 1.25-2.662 1.99-1.775 1.15-2.992 2.07-3.65 2.78-.66.72-1.029 1.42-1.108 2.12-.083.72.109 1.36.576 1.92.458.56 1.106.89 1.941.98.883.1 1.62-.08 2.21-.55.59-.47.942-1.17 1.055-2.11l1.863.41c-.289 1.39-.897 2.41-1.823 3.04-.926.65-2.099.89-3.519.73-1.433-.17-2.522-.69-3.267-1.58-.745-.89-1.05-1.92-.916-3.1.068-.6.257-1.17.567-1.72.311-.55.787-1.11 1.431-1.68.636-.58 1.677-1.35 3.121-2.31 1.206-.8 1.984-1.35 2.334-1.64.35-.3.645-.6.887-.9l-7.325-.84zm-2.235 1.95l-1.862.04c-.092-1.06-.363-1.85-.813-2.37-.458-.52-1.05-.81-1.777-.9-.862-.1-1.623.12-2.282.65-.666.53-1.049 1.24-1.15 2.12-.096.84.101 1.57.589 2.17.487.61 1.156.97 2.005 1.07.346.04.785.02 1.317-.06l-.387 1.59a2.845 2.845 0 00-.294-.06 3.842 3.842 0 00-2.178.37c-.671.34-1.055.93-1.152 1.78-.077.67.087 1.26.492 1.75s.967.78 1.687.86c.713.08 1.333-.07 1.86-.47.526-.39.908-1.03 1.146-1.91l1.797.54c-.364 1.2-.982 2.09-1.853 2.67-.872.59-1.899.82-3.081.69a4.985 4.985 0 01-2.191-.79c-.647-.43-1.115-.96-1.407-1.61a3.638 3.638 0 01-.33-1.98c.073-.65.313-1.22.72-1.71s.968-.85 1.682-1.09c-.859-.3-1.497-.8-1.913-1.5-.416-.7-.569-1.53-.459-2.49.148-1.31.75-2.36 1.805-3.16 1.053-.8 2.307-1.11 3.761-.94 1.31.15 2.356.66 3.136 1.54.774.88 1.151 1.95 1.132 3.2zm-54.371-17.02l.575-1.68 9.401 3.22c-.131.42-.338.8-.619 1.14-.459.56-1.056 1.06-1.792 1.5-.743.44-1.752.9-3.027 1.37-1.98.74-3.367 1.38-4.163 1.93-.798.56-1.309 1.17-1.535 1.83-.237.69-.187 1.36.149 2 .328.65.89 1.11 1.685 1.38.841.29 1.6.27 2.277-.06.677-.34 1.172-.95 1.484-1.84l1.731.8c-.581 1.3-1.392 2.16-2.433 2.58-1.043.43-2.24.42-3.592-.05-1.365-.46-2.316-1.21-2.852-2.24-.537-1.03-.614-2.1-.231-3.22a4.51 4.51 0 01.924-1.56c.421-.47 1.007-.92 1.758-1.34.745-.42 1.927-.95 3.544-1.58 1.349-.52 2.226-.89 2.632-1.11.404-.21.757-.44 1.06-.69l-6.976-2.38zm-44.67-15.77l.681-1.63 9.174 3.81a3.15 3.15 0 01-.691 1.1c-.494.53-1.122.99-1.886 1.38-.769.4-1.806.79-3.108 1.18-2.024.61-3.45 1.16-4.28 1.66-.832.5-1.382 1.08-1.65 1.72-.281.68-.274 1.35.02 2.01.286.67.816 1.16 1.593 1.48.82.35 1.579.37 2.276.09.697-.29 1.23-.87 1.599-1.74l1.676.91c-.663 1.26-1.528 2.06-2.594 2.42-1.069.36-2.263.27-3.582-.28-1.332-.56-2.232-1.36-2.701-2.42-.469-1.07-.477-2.14-.022-3.23.231-.56.572-1.06 1.022-1.5.451-.44 1.064-.85 1.841-1.22.771-.38 1.984-.83 3.639-1.35 1.38-.44 2.279-.75 2.698-.94.416-.18.784-.38 1.102-.61l-6.807-2.84zm-6.618-4.67l-1.382 3.32 6.021 2.51-.65 1.56-10.076 6.36-1.392-.58 3.743-9-1.875-.78.65-1.56 1.875.78 1.382-3.32 1.704.71zm-2.032 4.88l-2.604 6.26 6.949-4.45-4.345-1.81zm-38.747-22.65l.778-1.59 8.931 4.35c-.183.41-.434.76-.755 1.06-.524.5-1.179.92-1.964 1.27-.792.34-1.849.67-3.173.98-2.056.49-3.513.96-4.37 1.41-.861.45-1.444 1-1.75 1.62-.32.66-.353 1.33-.099 2.01.245.68.746 1.21 1.502 1.57.799.39 1.554.47 2.267.22.713-.25 1.28-.79 1.699-1.64l1.62 1.01c-.737 1.22-1.648 1.97-2.734 2.26-1.088.3-2.275.14-3.559-.49-1.296-.63-2.147-1.49-2.552-2.58-.406-1.09-.349-2.16.169-3.23.264-.54.634-1.01 1.11-1.43.475-.41 1.112-.78 1.91-1.11.792-.33 2.029-.71 3.712-1.13 1.403-.35 2.319-.61 2.749-.77.426-.16.805-.34 1.136-.55l-6.627-3.24zm-6.846 9.23l-.777 1.59-8.747-4.26.629-1.29c1.307-.5 2.754-1.3 4.342-2.41a24.92 24.92 0 004.237-3.72c.883-.97 1.698-2.11 2.447-3.41l1.705.83c-.537 1.06-1.372 2.24-2.505 3.55a22.473 22.473 0 01-3.836 3.51c-1.432 1.04-2.803 1.83-4.113 2.38l6.618 3.23zm-37.528-33.81l-1.712-.73c.353-1.01.432-1.84.235-2.5-.206-.65-.623-1.17-1.252-1.54-.746-.45-1.528-.56-2.347-.35-.824.21-1.464.7-1.919 1.46-.434.73-.553 1.47-.357 2.22.192.76.656 1.36 1.39 1.8.299.17.707.34 1.223.49l-1.005 1.28c-.099-.07-.18-.13-.245-.17a3.815 3.815 0 00-2.138-.55c-.751.03-1.344.41-1.782 1.14-.346.58-.436 1.18-.27 1.8.166.62.56 1.11 1.183 1.48.617.37 1.246.48 1.888.34.642-.15 1.253-.57 1.832-1.28l1.418 1.23c-.827.95-1.758 1.51-2.791 1.68-1.037.18-2.067-.04-3.088-.65-.705-.42-1.263-.95-1.674-1.61-.415-.66-.623-1.34-.622-2.04a3.64 3.64 0 01.516-1.95c.332-.56.784-.98 1.357-1.26.572-.28 1.233-.38 1.981-.3-.659-.63-1.033-1.35-1.124-2.16-.094-.8.108-1.62.604-2.46.672-1.13 1.653-1.84 2.944-2.13 1.288-.3 2.56-.07 3.817.68 1.133.68 1.875 1.58 2.224 2.7.344 1.12.248 2.25-.286 3.38zm-39.883-33.6l-2.286 2.78 5.037 4.15-1.074 1.3-11.485 3.17-1.165-.96 6.187-7.52-1.568-1.29 1.074-1.31 1.568 1.29 2.286-2.78 1.426 1.17zm-3.36 4.09l-4.305 5.24 7.94-2.25-3.635-2.99zm-9.719-12.543l1.127-1.371 7.675 6.311a3.265 3.265 0 01-.98.853c-.626.36-1.36.62-2.205.78-.85.15-1.955.22-3.315.22-2.113-.01-3.638.11-4.577.35-.943.24-1.636.63-2.078 1.17-.465.57-.652 1.21-.563 1.93.08.72.445 1.35 1.094 1.88.687.56 1.405.81 2.156.74.75-.08 1.428-.47 2.032-1.2l1.342 1.36c-.999 1.01-2.061 1.53-3.184 1.56-1.128.04-2.244-.4-3.348-1.31-1.114-.91-1.742-1.95-1.883-3.1-.142-1.15.163-2.18.914-3.1.382-.46.853-.84 1.412-1.13.559-.294 1.265-.506 2.116-.637.847-.136 2.138-.216 3.874-.24 1.446-.015 2.397-.052 2.853-.111a5.82 5.82 0 001.233-.273l-5.695-4.682zm-24.244-19.948l-1.512-1.224c.55-.78.803-1.522.76-2.227-.053-.705-.346-1.313-.878-1.824-.641-.616-1.416-.895-2.324-.838-.907.057-1.745.485-2.512 1.284-.729.759-1.09 1.564-1.082 2.415.003.846.349 1.6 1.039 2.263.429.412.911.685 1.446.819.53.14 1.042.148 1.538.027l1.093 1.363-6.398 4.561-5.392-5.177 1.222-1.272 4.327 4.154 3.382-2.353c-1.086-.171-1.987-.6-2.702-1.287-.947-.909-1.43-2.004-1.452-3.284-.021-1.281.463-2.437 1.453-3.467.942-.982 2.042-1.555 3.301-1.721 1.538-.21 2.909.263 4.112 1.418.986.947 1.527 1.997 1.623 3.151.091 1.148-.257 2.222-1.044 3.219zm-10.72-15.752l1.332 1.279-8.146 8.483c.614.002 1.329.101 2.145.298.811.191 1.498.409 2.058.654l-1.235 1.287a11.145 11.145 0 00-3.174-.603c-1.036-.037-1.894.068-2.576.314l-.858-.824 10.454-10.888zm-30.51-32.062l1.338-1.166 6.526 7.492a3.267 3.267 0 01-1.108.68c-.676.254-1.444.387-2.302.401-.863.008-1.965-.102-3.306-.33-2.084-.351-3.608-.488-4.572-.409-.97.083-1.718.354-2.244.812a2.444 2.444 0 00-.873 1.808c-.04.724.216 1.403.768 2.037.584.67 1.252 1.031 2.004 1.083.752.052 1.486-.23 2.202-.844l1.099 1.558c-1.152.832-2.285 1.17-3.398 1.016-1.119-.15-2.147-.763-3.086-1.84-.947-1.088-1.396-2.212-1.345-3.371.051-1.159.522-2.127 1.414-2.904.454-.395.98-.691 1.58-.887.6-.196 1.33-.289 2.192-.278.857.006 2.144.141 3.861.404 1.428.224 2.372.345 2.831.362.454.022.874 0 1.262-.065l-4.843-5.559zm-4.536-7.908l1.213 1.392-8.868 7.725c.611.057 1.315.219 2.11.487.791.263 1.455.541 1.992.835l-1.345 1.172a11.13 11.13 0 00-3.108-.882c-1.028-.129-1.893-.102-2.593.083l-.782-.897 11.381-9.915zm-24.378-33.688l1.097 1.484-9.456 6.993c.605.105 1.294.323 2.065.654.768.325 1.407.655 1.919.991l-1.434 1.061a11.169 11.169 0 00-3.028-1.128c-1.014-.21-1.878-.252-2.591-.124l-.708-.956 12.136-8.975zm-13.393 3.86l-1.426 1.055-5.787-7.824 1.154-.854c1.388.164 3.042.123 4.96-.122a24.876 24.876 0 005.481-1.35c1.231-.451 2.478-1.08 3.743-1.888l1.128 1.525c-.963.687-2.25 1.349-3.861 1.988a22.505 22.505 0 01-5.025 1.344c-1.749.257-3.331.325-4.745.207l4.378 5.919zm-16.883-49.819l1.54-.88 4.929 8.627a3.268 3.268 0 01-1.219.449c-.713.116-1.492.096-2.337-.059-.848-.161-1.907-.485-3.177-.972-1.974-.753-3.441-1.186-4.403-1.298-.967-.109-1.754.01-2.36.356a2.444 2.444 0 00-1.21 1.601c-.181.702-.064 1.418.354 2.148.44.772 1.025 1.257 1.752 1.455.728.199 1.503.067 2.325-.395l.772 1.744c-1.293.589-2.47.699-3.532.329-1.067-.366-1.955-1.17-2.664-2.41-.716-1.253-.935-2.442-.658-3.569.278-1.127.93-1.984 1.956-2.571a4.524 4.524 0 011.724-.559c.626-.075 1.361-.022 2.204.158.839.174 2.075.558 3.706 1.153 1.357.501 2.258.804 2.705.911.441.11.858.171 1.25.183l-3.657-6.401zm-2.866-.654l-1.104-1.601c.748-.593 1.201-1.233 1.359-1.922.148-.691.039-1.357-.327-1.998-.441-.772-1.105-1.258-1.992-1.46-.887-.202-1.81-.028-2.772.521-.914.523-1.488 1.193-1.721 2.011-.237.812-.118 1.634.357 2.465.295.516.68.914 1.155 1.194a3.09 3.09 0 001.468.461l.663 1.616-7.426 2.567-3.708-6.491 1.53-.875 2.977 5.209 3.91-1.301c-.994-.472-1.737-1.138-2.229-1.999-.65-1.139-.805-2.326-.464-3.561.342-1.234 1.133-2.206 2.373-2.915 1.182-.675 2.399-.914 3.653-.717 1.535.233 2.716 1.074 3.544 2.522.678 1.187.9 2.348.666 3.481-.238 1.128-.875 2.059-1.912 2.793zm-18.147-37.572l-.92-1.618c.89-.589 1.455-1.205 1.696-1.848.233-.647.212-1.31-.063-1.988-.325-.805-.879-1.37-1.66-1.696-.783-.332-1.586-.331-2.41.002-.786.318-1.328.837-1.627 1.555-.306.721-.299 1.478.022 2.27.13.323.357.7.679 1.13l-1.58.417a2.856 2.856 0 00-.092-.283 3.8 3.8 0 00-1.366-1.737c-.616-.429-1.32-.483-2.112-.162-.628.253-1.062.676-1.302 1.267-.24.591-.224 1.223.048 1.895.27.665.703 1.135 1.3 1.409.598.274 1.34.306 2.229.094l.388 1.834c-1.232.255-2.311.139-3.239-.349-.933-.485-1.623-1.279-2.07-2.381a4.879 4.879 0 01-.355-2.301c.064-.771.31-1.438.738-2.002.426-.57.955-.984 1.589-1.24a3.171 3.171 0 011.84-.181c.626.123 1.212.443 1.76.958-.143-.9-.006-1.701.411-2.401.411-.697 1.066-1.228 1.966-1.592 1.217-.492 2.43-.466 3.638.077 1.201.546 2.077 1.497 2.625 2.853.495 1.223.542 2.388.142 3.494-.403 1.099-1.161 1.941-2.275 2.524zM70.79 783.86l.821 1.647c-.61.424-1.01.837-1.202 1.239-.3.66-.314 1.329-.04 2.007.221.545.567.962 1.038 1.251.61.379 1.356.572 2.235.577.88.005 2.02-.268 3.419-.819-.794-.158-1.464-.473-2.009-.946a4.386 4.386 0 01-1.214-1.688c-.462-1.14-.433-2.28.087-3.42.511-1.143 1.432-1.984 2.762-2.523a5.782 5.782 0 012.674-.418c.9.071 1.682.356 2.347.853.666.498 1.169 1.165 1.507 2.001.577 1.426.525 2.8-.157 4.123-.687 1.326-2.235 2.476-4.643 3.45-2.693 1.09-4.853 1.385-6.478.885-1.416-.437-2.422-1.391-3.017-2.861-.443-1.097-.499-2.118-.166-3.063.33-.952 1.009-1.717 2.036-2.295zm8.834 4.555a4.334 4.334 0 001.542-1.055c.436-.472.706-.99.809-1.556a2.854 2.854 0 00-.155-1.585c-.293-.722-.835-1.225-1.629-1.509-.793-.284-1.69-.223-2.691.182-.963.39-1.617.953-1.96 1.689-.35.739-.368 1.498-.052 2.278a2.84 2.84 0 001.633 1.629c.769.315 1.603.291 2.503-.073zM65.6 741.526l1.736-.361 2.023 9.728a3.27 3.27 0 01-1.3.05c-.713-.11-1.448-.369-2.203-.778-.757-.415-1.664-1.05-2.721-1.905-1.645-1.327-2.907-2.192-3.787-2.596-.886-.402-1.671-.532-2.354-.39a2.445 2.445 0 00-1.646 1.148c-.39.612-.499 1.33-.327 2.153.18.87.586 1.512 1.217 1.925.63.414 1.408.528 2.333.342l.196 1.897c-1.412.161-2.566-.098-3.461-.778-.902-.678-1.499-1.717-1.79-3.115-.293-1.413-.134-2.612.478-3.598.612-.986 1.496-1.599 2.654-1.84a4.53 4.53 0 011.812 0c.62.123 1.302.4 2.048.831.744.425 1.8 1.173 3.168 2.243 1.136.895 1.9 1.462 2.291 1.702a5.87 5.87 0 001.133.56l-1.5-7.218zm-2.38-11.445l1.736-.361 2.023 9.728a3.252 3.252 0 01-1.299.05c-.714-.11-1.449-.369-2.204-.777-.756-.416-1.664-1.051-2.721-1.906-1.645-1.327-2.907-2.192-3.787-2.596-.886-.402-1.67-.532-2.353-.39a2.443 2.443 0 00-1.647 1.149c-.39.611-.498 1.329-.327 2.152.18.87.586 1.512 1.217 1.925.63.414 1.408.528 2.333.343l.196 1.897c-1.412.16-2.566-.099-3.461-.778-.902-.679-1.499-1.717-1.79-3.116-.293-1.412-.134-2.611.478-3.597.612-.986 1.497-1.6 2.655-1.841a4.513 4.513 0 011.812.001c.618.122 1.3.399 2.047.831.745.424 1.8 1.172 3.168 2.242 1.136.895 1.9 1.462 2.292 1.702.385.241.762.428 1.132.56l-1.5-7.218zm-19.235-39.939l.33 1.811c-.705.237-1.205.521-1.5.854a2.443 2.443 0 00-.599 1.916c.06.585.276 1.082.647 1.491.48.535 1.143.927 1.986 1.178.843.251 2.014.306 3.511.167-.718-.373-1.273-.863-1.665-1.469a4.38 4.38 0 01-.694-1.959c-.125-1.224.22-2.311 1.038-3.26.81-.955 1.928-1.506 3.356-1.652a5.774 5.774 0 012.684.345c.844.319 1.516.811 2.016 1.474.5.664.797 1.444.889 2.342.156 1.53-.278 2.835-1.301 3.915-1.03 1.081-2.838 1.754-5.422 2.017-2.89.295-5.046-.024-6.468-.958-1.237-.815-1.937-2.011-2.098-3.589-.12-1.176.112-2.172.695-2.988.583-.822 1.448-1.367 2.595-1.635zm7.213 6.839a4.323 4.323 0 001.775-.583c.55-.331.954-.754 1.21-1.268.25-.513.348-1.035.294-1.565-.08-.776-.46-1.41-1.142-1.904-.683-.494-1.562-.686-2.636-.576-1.034.105-1.818.464-2.354 1.075-.542.612-.77 1.336-.685 2.173a2.841 2.841 0 001.113 2.02c.65.517 1.459.727 2.425.628zm-.084-9.701l-.432-1.811c1.02-.317 1.734-.751 2.145-1.301.404-.557.569-1.199.494-1.926-.088-.864-.461-1.561-1.12-2.092-.66-.537-1.432-.761-2.316-.67-.843.086-1.508.432-1.996 1.038-.495.607-.699 1.336-.612 2.186.035.347.147.772.336 1.275l-1.632-.04a2.807 2.807 0 00-.01-.298 3.8 3.8 0 00-.828-2.049c-.472-.584-1.133-.833-1.983-.746-.673.069-1.207.354-1.603.854-.395.501-.556 1.112-.483 1.833.073.714.358 1.286.856 1.716.497.431 1.202.668 2.113.712l-.139 1.87c-1.254-.099-2.258-.512-3.012-1.239-.762-.726-1.203-1.681-1.323-2.864a4.88 4.88 0 01.3-2.309c.277-.722.7-1.294 1.268-1.716a3.672 3.672 0 011.871-.748 3.17 3.17 0 011.818.34c.566.293 1.04.763 1.422 1.411.114-.905.47-1.635 1.065-2.19.59-.555 1.367-.882 2.333-.981 1.305-.133 2.462.23 3.47 1.089 1.003.86 1.578 2.017 1.726 3.473.134 1.312-.145 2.444-.839 3.394-.694.943-1.657 1.54-2.889 1.789zm-7.886-39.722l-.343-1.83c1.034-.266 1.769-.665 2.207-1.194.43-.536.626-1.17.587-1.9-.045-.867-.384-1.582-1.016-2.144-.633-.569-1.393-.83-2.28-.783-.847.044-1.528.358-2.045.939-.524.582-.763 1.3-.718 2.153.018.349.109.778.273 1.29l-1.629-.119c.007-.124.009-.223.005-.298a3.805 3.805 0 00-.726-2.088c-.443-.606-1.09-.887-1.944-.842-.676.036-1.224.294-1.643.775-.42.481-.61 1.083-.572 1.806.037.717.294 1.303.77 1.757.476.454 1.168.725 2.076.814l-.23 1.861c-1.248-.16-2.23-.622-2.949-1.385-.724-.763-1.118-1.738-1.18-2.926a4.877 4.877 0 01.412-2.291c.312-.708.762-1.259 1.35-1.652a3.673 3.673 0 011.907-.655 3.167 3.167 0 011.799.428c.55.321 1.001.814 1.351 1.48.158-.898.549-1.61 1.171-2.136.616-.525 1.409-.814 2.378-.865 1.31-.069 2.448.35 3.414 1.258.958.908 1.476 2.092 1.553 3.553.069 1.317-.266 2.434-1.005 3.349-.74.908-1.73 1.457-2.973 1.645zm-9.704-11.307l-1.771.094-.513-9.718 1.434-.075c1.067.902 2.47 1.779 4.205 2.633a24.903 24.903 0 005.316 1.896c1.276.303 2.664.466 4.164.489l.1 1.894c-1.182.042-2.621-.115-4.317-.47a22.596 22.596 0 01-4.934-1.65c-1.6-.751-2.957-1.566-4.072-2.445l.388 7.352zm6.9-42.83l-.174-1.937c.943-.149 1.652-.484 2.128-1.005.47-.529.702-1.163.698-1.901-.004-.888-.343-1.639-1.015-2.251-.673-.612-1.563-.915-2.67-.91-1.054.005-1.883.307-2.488.904-.606.591-.906 1.365-.901 2.322.002.595.142 1.131.417 1.608.27.477.62.852 1.052 1.123l-.217 1.734-7.729-1.419-.036-7.475 1.764-.008.029 5.998 4.044.791c-.633-.9-.953-1.845-.957-2.836-.007-1.313.443-2.422 1.347-3.329.905-.907 2.072-1.363 3.5-1.37 1.361-.007 2.539.384 3.534 1.172 1.221.958 1.836 2.271 1.844 3.939.007 1.367-.37 2.487-1.132 3.358-.762.865-1.774 1.363-3.038 1.492zm-.057-11.69l-.173-1.937c.942-.148 1.651-.483 2.127-1.005.47-.528.702-1.162.699-1.9-.005-.889-.343-1.639-1.016-2.251-.673-.612-1.563-.915-2.67-.91-1.053.005-1.882.306-2.488.904-.605.591-.906 1.365-.901 2.322.003.595.142 1.131.418 1.608a3.1 3.1 0 001.051 1.123l-.217 1.734L29.469 580l-.036-7.475 1.763-.009.03 5.999 4.043.79c-.633-.899-.952-1.844-.957-2.835-.006-1.313.443-2.422 1.348-3.329s2.071-1.364 3.5-1.371c1.36-.006 2.538.385 3.533 1.173 1.221.958 1.836 2.271 1.844 3.939.007 1.367-.37 2.486-1.132 3.358-.761.865-1.774 1.362-3.038 1.491zm1.947-41.372l-.118-1.858c1.058-.139 1.836-.445 2.335-.917.492-.48.764-1.085.814-1.815.06-.866-.189-1.616-.748-2.251-.559-.642-1.281-.994-2.168-1.055-.845-.059-1.56.169-2.144.684-.59.514-.915 1.197-.974 2.05-.025.348.014.785.114 1.313l-1.602-.316a2.85 2.85 0 00.041-.296 3.801 3.801 0 00-.467-2.16c-.366-.655-.975-1.013-1.827-1.072-.675-.047-1.25.143-1.725.569-.475.426-.738 1.001-.788 1.724-.05.716.134 1.328.551 1.837.417.508 1.071.862 1.962 1.061l-.455 1.818c-1.219-.31-2.138-.888-2.758-1.733-.627-.845-.899-1.861-.817-3.047.057-.819.287-1.56.689-2.224.395-.665.91-1.157 1.541-1.476a3.68 3.68 0 011.972-.419c.648.045 1.226.26 1.733.645.508.384.895.929 1.162 1.632.266-.872.74-1.531 1.422-1.977.675-.447 1.496-.637 2.465-.57 1.31.091 2.388.646 3.235 1.664.841 1.017 1.211 2.256 1.11 3.715-.091 1.316-.56 2.384-1.404 3.202-.844.812-1.895 1.236-3.151 1.272zm-2.63-11.889c-1.773-.123-3.186-.403-4.238-.839-1.059-.443-1.857-1.043-2.394-1.8-.536-.763-.766-1.691-.69-2.782.055-.805.268-1.499.637-2.083a4.002 4.002 0 011.506-1.407c.634-.353 1.399-.612 2.294-.776.889-.165 2.076-.196 3.563-.093 1.76.122 3.169.402 4.228.838 1.052.436 1.85 1.036 2.393 1.8.537.757.768 1.684.692 2.782-.1 1.446-.697 2.546-1.791 3.299-1.317.902-3.383 1.256-6.2 1.061zm.131-1.893c2.462.171 4.122-.002 4.98-.518.852-.523 1.307-1.208 1.366-2.054.058-.845-.302-1.583-1.08-2.212-.779-.637-2.395-1.04-4.85-1.21-2.469-.171-4.13.005-4.98.528-.852.517-1.307 1.205-1.367 2.064-.059.846.253 1.546.934 2.1.87.698 2.535 1.132 4.997 1.302zm14.855-44.238l-3.574-.426-.772 6.476-1.68-.2-8.86-7.964.178-1.497 9.672 1.153.24-2.016 1.68.2-.24 2.016 3.574.426-.218 1.832zm-5.254-.626l-6.73-.802 6.173 5.476.557-4.674zm2.518-5.792l.047-1.781c.846-.051 1.48-.264 1.904-.641.424-.376.675-.893.753-1.552.067-.563-.003-1.071-.211-1.522a3.187 3.187 0 00-.903-1.172c-.403-.323-.96-.62-1.67-.89a9.22 9.22 0 00-2.575-.576c.54.436.955.995 1.245 1.677.285.674.383 1.381.295 2.121-.147 1.235-.72 2.227-1.718 2.976-.998.748-2.23 1.035-3.696.861-1.514-.181-2.679-.771-3.496-1.77-.817-1.006-1.145-2.181-.984-3.525a4.794 4.794 0 011.1-2.564c.62-.745 1.439-1.267 2.459-1.566 1.014-.306 2.437-.35 4.27-.131 1.907.227 3.403.615 4.487 1.165 1.078.548 1.863 1.268 2.355 2.16.494.885.675 1.877.544 2.976-.14 1.168-.575 2.083-1.308 2.746-.74.663-1.706.998-2.898 1.008zm-5.694-8.289c-1.052-.126-1.92.057-2.605.546-.684.483-1.073 1.119-1.167 1.906-.097.814.151 1.563.744 2.247.594.683 1.42 1.088 2.479 1.214.95.113 1.758-.079 2.423-.578.66-.507 1.04-1.181 1.14-2.023.1-.848-.112-1.579-.638-2.193-.531-.621-1.323-.994-2.376-1.119zm20.731-37.699l-.446 1.791-11.413-2.844c.304.534.574 1.204.81 2.009.238.799.39 1.503.457 2.111l-1.731-.431a11.14 11.14 0 00-1.057-3.053c-.483-.917-1.001-1.609-1.553-2.078l.287-1.154 14.646 3.649zm-2.703-5.566l.208-1.85c1.066.047 1.886-.119 2.46-.497.568-.387.94-.935 1.117-1.645.21-.842.095-1.625-.345-2.347-.438-.729-1.088-1.201-1.95-1.416-.823-.205-1.567-.105-2.231.3-.671.403-1.11 1.02-1.317 1.849-.084.338-.123.776-.116 1.313l-1.522-.591a2.73 2.73 0 00.091-.283 3.803 3.803 0 00-.083-2.209c-.246-.709-.784-1.167-1.613-1.374-.656-.164-1.256-.077-1.798.26-.541.337-.9.857-1.075 1.56-.174.697-.1 1.332.222 1.905.323.573.905 1.036 1.747 1.386l-.764 1.712c-1.146-.518-1.951-1.247-2.414-2.187-.47-.941-.561-1.989-.274-3.143a4.876 4.876 0 011.066-2.07c.505-.585 1.096-.981 1.774-1.185a3.679 3.679 0 012.015-.069 3.18 3.18 0 011.595.937c.433.467.72 1.07.859 1.81.414-.813.995-1.38 1.744-1.7.743-.323 1.585-.366 2.527-.132 1.274.318 2.24 1.052 2.897 2.202.65 1.148.799 2.432.445 3.852-.319 1.28-.966 2.249-1.94 2.908-.973.653-2.08.887-3.325.704zm20.277-44.376l-.674 1.719-10.95-4.29c.232.569.413 1.268.544 2.097.133.823.193 1.54.181 2.152l-1.661-.651a11.145 11.145 0 00-.655-3.163c-.361-.971-.786-1.725-1.273-2.261l.434-1.107 14.054 5.504zm-1.408-5.936l.494-1.712c.831.164 1.5.118 2.004-.14.505-.257.878-.695 1.12-1.312.207-.528.267-1.037.18-1.527a3.19 3.19 0 00-.58-1.361c-.308-.414-.771-.842-1.392-1.283a9.258 9.258 0 00-1.999-1.08 8.73 8.73 0 00-.347-.125 4.27 4.27 0 01.783 1.936 4.113 4.113 0 01-.25 2.127c-.453 1.159-1.258 1.974-2.412 2.447-1.154.473-2.419.44-3.794-.098-1.419-.556-2.398-1.421-2.937-2.594-.537-1.179-.558-2.399-.065-3.659a4.795 4.795 0 011.712-2.204c.786-.565 1.711-.864 2.773-.896 1.059-.04 2.447.276 4.166.949 1.788.701 3.138 1.453 4.049 2.258.904.802 1.483 1.697 1.735 2.684.254.98.18 1.986-.224 3.017-.429 1.095-1.082 1.871-1.958 2.328-.883.455-1.902.536-3.058.245zm-3.421-9.456c-.987-.387-1.873-.429-2.66-.128-.783.295-1.32.812-1.609 1.55-.299.764-.248 1.551.154 2.362.402.811 1.1 1.411 2.093 1.8.89.349 1.721.366 2.49.05.766-.324 1.304-.88 1.613-1.67.312-.795.29-1.556-.064-2.282-.358-.735-1.03-1.296-2.017-1.682zm26.27-31.553l-3.192-1.664-3.015 5.783-1.5-.782-5.466-10.587.697-1.336 8.638 4.504.938-1.801 1.5.783-.938 1.8 3.191 1.664-.853 1.636zm-4.692-2.446l-6.01-3.134 3.834 7.307 2.176-4.173zm10.575-8.837l-.853 1.637-10.429-5.438c.171.59.276 1.304.317 2.142.044.833.027 1.553-.051 2.16l-1.582-.825a11.145 11.145 0 00-.312-3.216c-.255-1.004-.596-1.799-1.023-2.384l.55-1.055 13.383 6.979zm13.073-44.208l-.824 1.646c-.705-.233-1.276-.305-1.712-.217a2.447 2.447 0 00-1.629 1.175 2.534 2.534 0 00-.376 1.58c.063.716.357 1.428.881 2.134.524.707 1.427 1.454 2.709 2.241-.351-.73-.501-1.454-.451-2.174.05-.72.257-1.381.62-1.985.635-1.054 1.563-1.716 2.787-1.985 1.22-.278 2.446-.047 3.676.693a5.77 5.77 0 011.94 1.886c.483.762.726 1.558.728 2.389.003.831-.229 1.634-.694 2.407-.793 1.318-1.923 2.101-3.39 2.351-1.473.247-3.322-.3-5.548-1.639-2.489-1.498-4.022-3.048-4.599-4.647-.501-1.395-.342-2.772.475-4.131.61-1.013 1.393-1.671 2.349-1.973.959-.308 1.979-.225 3.058.249zm1.665 9.799a4.34 4.34 0 001.77.599c.639.065 1.216-.031 1.729-.288.508-.261.9-.62 1.175-1.077.402-.667.478-1.403.228-2.208-.25-.805-.837-1.485-1.763-2.042-.89-.536-1.733-.72-2.528-.552-.801.164-1.418.606-1.851 1.326a2.836 2.836 0 00-.322 2.284c.21.805.731 1.457 1.562 1.958zm2.798-9.578c-1.523-.917-2.654-1.809-3.392-2.676-.741-.877-1.178-1.775-1.312-2.693-.13-.924.087-1.854.651-2.791.416-.691.921-1.213 1.516-1.565a3.996 3.996 0 011.981-.567c.726-.026 1.525.092 2.397.353.866.258 1.937.771 3.214 1.54 1.511.909 2.639 1.8 3.383 2.671.739.867 1.176 1.764 1.312 2.692.133.918-.084 1.849-.651 2.792-.748 1.241-1.78 1.948-3.097 2.121-1.583.204-3.584-.421-6.002-1.877zm.978-1.626c2.114 1.273 3.671 1.875 4.67 1.806.996-.078 1.713-.481 2.15-1.207.437-.726.453-1.547.046-2.462-.403-.921-1.659-2.016-3.767-3.285-2.121-1.276-3.679-1.875-4.676-1.797-.993.073-1.711.478-2.156 1.216-.437.726-.478 1.491-.124 2.295.457 1.017 1.743 2.162 3.857 3.434zm27.083-40.766l-1.02 1.534c-.671-.318-1.229-.46-1.673-.426a2.444 2.444 0 00-1.76.966 2.54 2.54 0 00-.567 1.522c-.025.719.179 1.461.613 2.227.434.765 1.238 1.617 2.413 2.555-.258-.767-.318-1.504-.18-2.213a4.384 4.384 0 01.858-1.893c.759-.969 1.762-1.511 3.009-1.629 1.246-.126 2.434.253 3.564 1.139a5.775 5.775 0 011.694 2.109c.386.815.53 1.636.43 2.461-.099.825-.428 1.593-.984 2.303-.949 1.211-2.167 1.85-3.653 1.918-1.492.064-3.26-.705-5.305-2.307-2.287-1.792-3.618-3.518-3.995-5.176-.326-1.446 0-2.793.979-4.041.729-.931 1.587-1.488 2.572-1.67.99-.189 1.992.019 3.005.621zm.451 9.93a4.341 4.341 0 001.684.811c.626.143 1.209.119 1.751-.074a2.85 2.85 0 001.297-.924c.481-.613.647-1.335.498-2.164-.15-.829-.649-1.577-1.499-2.243-.818-.641-1.632-.927-2.442-.858-.815.065-1.481.428-2 1.09a2.837 2.837 0 00-.599 2.227c.109.825.546 1.536 1.31 2.135zm14.074-10.062l-1.138 1.453-9.257-7.255c.059.611.032 1.332-.081 2.164-.109.826-.258 1.531-.445 2.114l-1.404-1.101c.254-1.112.348-2.185.281-3.219-.067-1.033-.257-1.877-.569-2.531l.733-.936 11.88 9.311zm20.178-28.304l1.268-1.474c.763.573 1.498.849 2.204.826.706-.031 1.323-.306 1.85-.823.634-.622.937-1.388.907-2.297-.03-.909-.433-1.759-1.208-2.549-.737-.752-1.531-1.137-2.382-1.155-.845-.022-1.61.301-2.293.971-.425.417-.712.89-.862 1.42a3.078 3.078 0 00-.073 1.537l-1.396 1.052-4.366-6.532 5.337-5.234 1.235 1.259-4.283 4.2 2.25 3.452c.204-1.081.66-1.968 1.368-2.662.937-.919 2.046-1.37 3.327-1.353 1.28.018 2.421.536 3.421 1.556.953.972 1.493 2.089 1.621 3.352.164 1.543-.35 2.899-1.541 4.067-.976.957-2.042 1.466-3.198 1.528-1.151.056-2.213-.324-3.186-1.141zm15.327-9.516l-2.52-2.57-4.656 4.567-1.185-1.208-1.923-11.758 1.076-1.056 6.821 6.955 1.449-1.421 1.185 1.208-1.449 1.421 2.52 2.57-1.318 1.292zm-3.705-3.777l-4.746-4.84 1.386 8.135 3.36-3.295zm27.486-23.325l1.264-1.368c.831.67 1.589 1.022 2.275 1.057.687.025 1.312-.196 1.875-.663.668-.555 1.039-1.253 1.113-2.096.078-.847-.166-1.612-.733-2.296-.542-.653-1.2-1.012-1.975-1.08-.78-.072-1.499.164-2.156.71-.269.223-.559.552-.871.989l-.877-1.377a2.91 2.91 0 00.242-.174 3.8 3.8 0 001.24-1.829c.222-.718.061-1.405-.485-2.063-.432-.52-.966-.805-1.603-.855-.636-.049-1.233.157-1.79.62-.553.458-.869 1.014-.949 1.667-.08.652.115 1.37.586 2.151l-1.63.926c-.616-1.096-.833-2.16-.649-3.191.179-1.037.726-1.935 1.641-2.695a4.882 4.882 0 012.084-1.037c.754-.172 1.465-.14 2.132.097a3.674 3.674 0 011.664 1.138c.415.499.658 1.066.73 1.699.073.633-.054 1.288-.379 1.967.815-.41 1.619-.522 2.412-.336.789.18 1.494.643 2.114 1.391.838 1.01 1.181 2.173 1.03 3.489-.156 1.31-.797 2.433-1.923 3.367-1.015.843-2.111 1.241-3.286 1.195-1.17-.051-2.202-.518-3.096-1.403zm8.503-12.491c-.769.273-1.461.328-2.076.164-.616-.164-1.155-.525-1.618-1.083-.699-.841-.983-1.8-.854-2.875.129-1.076.696-2.03 1.701-2.864 1.01-.838 2.067-1.218 3.172-1.14 1.1.074 1.999.531 2.697 1.373.445.536.692 1.122.74 1.758.048.626-.125 1.284-.519 1.976.902-.358 1.751-.432 2.547-.222.802.206 1.499.666 2.093 1.382.82.989 1.16 2.11 1.019 3.364-.141 1.254-.782 2.355-1.923 3.302-1.142.947-2.342 1.375-3.6 1.282-1.263-.098-2.314-.652-3.152-1.662-.624-.753-.956-1.539-.996-2.358-.04-.829.216-1.628.769-2.397zm-2.282-2.171c.454.547 1.002.848 1.642.903.641.055 1.243-.152 1.805-.619.548-.454.853-.996.916-1.626a2.226 2.226 0 00-.525-1.709c-.432-.521-.976-.807-1.632-.858-.654-.061-1.25.131-1.786.577-.542.449-.848.996-.918 1.64-.069.644.097 1.208.498 1.692zm3.976 5.722c.336.405.756.719 1.259.94.509.217 1.04.274 1.594.17a3.282 3.282 0 001.478-.707c.679-.563 1.058-1.246 1.138-2.05.079-.803-.16-1.541-.719-2.215-.568-.684-1.266-1.059-2.094-1.127-.824-.071-1.578.177-2.261.744-.669.554-1.04 1.236-1.115 2.045-.07.804.17 1.537.72 2.2zm31.41-23.208l1.541-1.187c.631.716 1.294 1.134 1.99 1.256.698.112 1.357-.032 1.978-.432.747-.481 1.199-1.169 1.353-2.066.155-.896-.067-1.81-.666-2.741-.57-.885-1.269-1.423-2.099-1.613-.823-.193-1.637-.031-2.442.487-.5.322-.878.727-1.132 1.216-.258.483-.386.98-.383 1.49l-1.579.748-2.954-7.281 6.287-4.045.954 1.483-5.045 3.246 1.505 3.836c.419-1.017 1.045-1.794 1.878-2.33 1.104-.711 2.281-.928 3.532-.651 1.251.276 2.263 1.015 3.036 2.216.736 1.144 1.039 2.348.909 3.61-.153 1.545-.93 2.769-2.333 3.671-1.149.74-2.296 1.023-3.441.849-1.138-.178-2.102-.765-2.889-1.762zm9.938-11.406c-.796.178-1.489.149-2.081-.088-.591-.237-1.083-.661-1.475-1.27-.592-.92-.759-1.906-.501-2.958.258-1.052.936-1.931 2.034-2.637 1.103-.711 2.199-.96 3.286-.749 1.083.205 1.92.768 2.512 1.687.377.587.551 1.198.522 1.835-.027.627-.278 1.26-.753 1.899.939-.246 1.791-.217 2.556.087.77.301 1.407.842 1.91 1.624.696 1.081.898 2.235.607 3.463-.291 1.228-1.061 2.243-2.308 3.046-1.248.802-2.49 1.082-3.728.838-1.242-.25-2.218-.926-2.928-2.03-.529-.822-.764-1.642-.706-2.461.061-.827.412-1.59 1.053-2.286zm-2.003-2.431c.385.598.892.963 1.521 1.094.629.132 1.252 0 1.867-.396.598-.385.966-.886 1.105-1.504a2.227 2.227 0 00-.316-1.76c-.366-.569-.871-.918-1.516-1.048-.642-.14-1.257-.021-1.843.357-.592.381-.961.887-1.108 1.518-.147.631-.05 1.21.29 1.739zm3.256 6.16c.285.443.664.804 1.138 1.085.479.277.999.397 1.561.361a3.285 3.285 0 001.553-.524c.741-.477 1.2-1.109 1.376-1.897.176-.788.027-1.55-.446-2.286-.481-.747-1.129-1.204-1.944-1.371-.808-.171-1.586-.015-2.334.465-.73.47-1.181 1.102-1.353 1.896-.167.789-.017 1.547.449 2.271zm42.588-20.204l-1.641.846-5.391-10.452c-.2.58-.526 1.225-.975 1.933-.444.706-.872 1.285-1.286 1.736l-.817-1.585a11.182 11.182 0 001.597-2.809c.37-.968.549-1.814.537-2.538l1.057-.545 6.919 13.414zm.812-8.76c-.815-1.58-1.309-2.932-1.482-4.058-.17-1.136-.071-2.129.297-2.98.375-.855 1.048-1.533 2.02-2.034.717-.37 1.421-.549 2.112-.536.688.007 1.35.192 1.984.557.631.36 1.249.88 1.854 1.56.601.674 1.244 1.673 1.927 2.998.808 1.567 1.301 2.917 1.477 4.049.173 1.126.074 2.119-.297 2.98-.369.851-1.042 1.529-2.02 2.034-1.288.664-2.538.724-3.749.18-1.455-.658-2.829-2.241-4.123-4.75zm1.686-.87c1.131 2.194 2.14 3.523 3.026 3.989.889.457 1.711.491 2.464.102.753-.388 1.197-1.079 1.332-2.071.14-.996-.354-2.587-1.482-4.774-1.134-2.2-2.146-3.527-3.035-3.984-.884-.46-1.708-.492-2.474-.097-.753.388-1.19 1.017-1.31 1.887-.146 1.106.347 2.755 1.479 4.948zm46.158-13.766l-1.714.686-4.367-10.921c-.255.558-.64 1.169-1.156 1.831-.509.66-.991 1.195-1.445 1.605l-.663-1.656a11.129 11.129 0 001.859-2.643c.461-.928.72-1.753.777-2.475l1.105-.442 5.604 14.015zm9.406-3.761l-1.713.685-4.367-10.92c-.255.558-.641 1.169-1.156 1.831-.509.66-.991 1.195-1.445 1.605l-.663-1.656a11.157 11.157 0 001.859-2.643c.461-.928.72-1.753.777-2.475l1.105-.442 5.603 14.015zm40.801-16.119l.441 1.718-9.624 2.473a3.284 3.284 0 01-.11-1.295c.077-.719.301-1.464.674-2.238.38-.775.973-1.71 1.778-2.807 1.249-1.704 2.055-3.005 2.417-3.903.36-.904.454-1.694.28-2.369a2.443 2.443 0 00-1.224-1.591c-.629-.36-1.35-.437-2.165-.227-.861.22-1.483.656-1.867 1.305-.383.65-.461 1.431-.233 2.347l-1.886.283c-.226-1.403-.021-2.567.617-3.493.635-.933 1.645-1.577 3.029-1.932 1.397-.36 2.602-.256 3.615.31 1.014.565 1.668 1.42 1.962 2.566.15.582.177 1.186.084 1.81-.094.624-.339 1.318-.735 2.084-.39.763-1.088 1.853-2.093 3.269-.841 1.176-1.373 1.965-1.594 2.368a5.879 5.879 0 00-.507 1.157l7.141-1.835zm8.819-12.154l-1.742.596c-.339-.66-.695-1.113-1.068-1.356a2.443 2.443 0 00-1.984-.305 2.531 2.531 0 00-1.377.862c-.458.555-.747 1.268-.869 2.14-.122.87-.003 2.036.358 3.496.262-.766.663-1.388 1.204-1.866a4.386 4.386 0 011.834-.979c1.192-.306 2.318-.126 3.378.54 1.066.658 1.777 1.682 2.134 3.073.235.913.255 1.815.06 2.705-.19.882-.575 1.62-1.157 2.214-.581.594-1.309 1.003-2.183 1.228-1.49.382-2.845.148-4.066-.703-1.222-.857-2.157-2.544-2.803-5.06-.723-2.814-.729-4.993-.018-6.538.622-1.346 1.7-2.215 3.236-2.61 1.146-.294 2.165-.214 3.058.241.9.454 1.569 1.228 2.005 2.322zm-5.687 8.152c.158.616.439 1.172.842 1.669.409.494.887.83 1.434 1.008.545.17 1.075.189 1.592.056.754-.194 1.325-.665 1.712-1.413.386-.749.445-1.646.176-2.693-.259-1.006-.73-1.728-1.414-2.166-.686-.445-1.436-.563-2.251-.354a2.84 2.84 0 00-1.831 1.402c-.415.72-.501 1.551-.26 2.491zm43.691-10.829l1.899-.42c.268.916.691 1.577 1.269 1.983.584.397 1.242.547 1.974.45.881-.118 1.582-.55 2.103-1.295.521-.746.708-1.667.561-2.765-.139-1.044-.544-1.828-1.214-2.352-.663-.525-1.469-.724-2.418-.597a3.186 3.186 0 00-1.541.62 3.085 3.085 0 00-.98 1.186l-1.747.006.42-7.846 7.409-.99.234 1.747-5.946.795-.267 4.112c.811-.743 1.707-1.18 2.69-1.312 1.301-.173 2.459.13 3.474.912 1.014.782 1.616 1.88 1.806 3.297.18 1.348-.057 2.566-.712 3.654-.794 1.333-2.018 2.11-3.671 2.332-1.355.18-2.514-.05-3.476-.694-.955-.645-1.577-1.586-1.867-2.823zm55.813-7.661l1.773-.165c.152.834.439 1.438.863 1.814.424.375.968.563 1.631.562.568 0 1.063-.13 1.487-.39.43-.26.782-.606 1.055-1.037.273-.438.501-1.026.685-1.764a9.246 9.246 0 00.265-2.625 4.257 4.257 0 01-1.517 1.436 4.108 4.108 0 01-2.07.546c-1.245 0-2.298-.45-3.16-1.351-.862-.902-1.294-2.091-1.295-3.568-.001-1.524.446-2.751 1.34-3.682.902-.93 2.029-1.396 3.383-1.397a4.792 4.792 0 012.677.787c.814.526 1.43 1.277 1.848 2.254.424.97.637 2.379.639 4.224.001 1.921-.206 3.453-.622 4.595-.416 1.135-1.037 2-1.864 2.596-.82.595-1.783.893-2.891.894-1.175.001-2.136-.323-2.882-.972-.745-.655-1.194-1.574-1.345-2.757zm7.551-6.64c-.001-1.06-.285-1.9-.853-2.522-.561-.622-1.238-.932-2.031-.932-.82.001-1.535.337-2.142 1.007-.608.67-.912 1.539-.911 2.605.001.957.289 1.736.864 2.337.581.595 1.296.892 2.143.89.855 0 1.555-.298 2.102-.893.553-.602.829-1.433.828-2.492z" fill="#fff"/><path stroke="url(#paint0_linear)" stroke-width="2" d="M604.999 162.05l-10 199"/><path stroke="url(#paint1_linear)" stroke-width="2" d="M646.903 167.155l-30.915 196.838"/><path stroke="url(#paint2_linear)" stroke-width="2" d="M686.962 175.108l-49.07 193.114"/><path stroke="url(#paint3_linear)" stroke-width="2" d="M726.033 187.342L657.94 374.596"/><path stroke="url(#paint4_linear)" stroke-width="2" d="M765.188 202.309l-86.481 179.505"/><path stroke="url(#paint5_linear)" stroke-width="2" d="M802.013 221.623L699.797 392.658"/><path stroke="url(#paint6_linear)" stroke-width="2" d="M836.09 245.123L717.611 405.322"/><path stroke="url(#paint7_linear)" stroke-width="2" d="M868.119 271.956L735.467 420.631"/><path stroke="url(#paint8_linear)" stroke-width="2" d="M897.318 301.355L748.101 433.398"/><path stroke="url(#paint9_linear)" stroke-width="2" d="M897.318 301.355L748.101 433.398"/><path stroke="url(#paint10_linear)" stroke-width="2" d="M922.918 332.953L762.733 451.45"/><path stroke="url(#paint11_linear)" stroke-width="2" d="M945.552 368.586L773.771 469.543"/><path stroke="url(#paint12_linear)" stroke-width="2" d="M965.814 403.6l-180.418 84.559"/><path stroke="url(#paint13_linear)" stroke-width="2" d="M981.14 441.565l-187.955 66.137"/><path stroke="url(#paint14_linear)" stroke-width="2" d="M993.405 482.329l-193.627 47.006"/><path stroke="url(#paint15_linear)" stroke-width="2" d="M1001.83 523.049l-197.058 29.468"/><path stroke="url(#paint16_linear)" stroke-width="2" d="M1005.28 564.299l-198.998 10.022"/><path stroke="url(#paint17_linear)" stroke-width="2" d="M1004.85 606.08l-199.078-8.244"/><path stroke="url(#paint18_linear)" stroke-width="2" d="M1000.65 647.301l-196.733-31.6"/><path stroke="url(#paint19_linear)" stroke-width="2" d="M165.387 645.407l197.073-29.378"/><path stroke="url(#paint20_linear)" stroke-width="2" d="M162.141 603.318l199.072-8.447"/><path stroke="url(#paint21_linear)" stroke-width="2" d="M162.051 562.477l198.995 10.087"/><path stroke="url(#paint22_linear)" stroke-width="2" d="M166.352 521.763l196.996 29.89"/><path stroke="url(#paint23_linear)" stroke-width="2" d="M174.317 481.427l193.019 49.444"/><path stroke="url(#paint24_linear)" stroke-width="2" d="M186.002 441.52l187.812 66.539"/><path stroke="url(#paint25_linear)" stroke-width="2" d="M202.332 403.483L382.723 488.1"/><path stroke="url(#paint26_linear)" stroke-width="2" d="M222.333 366.798L394.217 467.58"/><path stroke="url(#paint27_linear)" stroke-width="2" d="M245.408 332.383l158.838 120.296"/><path stroke="url(#paint28_linear)" stroke-width="2" d="M271.346 301.062L419.064 434.78"/><path stroke="url(#paint29_linear)" stroke-width="2" d="M300.825 270.854l132.804 148.54"/><path stroke="url(#paint30_linear)" stroke-width="2" d="M438.111 980.686L506.8 793.649"/><path stroke="url(#paint31_linear)" stroke-width="2" d="M399.618 964.358l88.017-178.757"/><path stroke="url(#paint32_linear)" stroke-width="2" d="M363.732 944.86l104.245-169.806"/><path stroke="url(#paint33_linear)" stroke-width="2" d="M330.062 921.567l120.667-158.558"/><path stroke="url(#paint34_linear)" stroke-width="2" d="M298.481 895.241l135.921-145.694"/><path stroke="url(#paint35_linear)" stroke-width="2" d="M269.06 865.855l148.428-132.93"/><path stroke="url(#paint36_linear)" stroke-width="2" d="M243.506 833.29l160.736-117.75"/><path stroke="url(#paint37_linear)" stroke-width="2" d="M220.9 798.151l170.843-102.535"/><path stroke="url(#paint38_linear)" stroke-width="2" d="M201.758 761.402l181.716-81.731"/><path stroke="url(#paint39_linear)" stroke-width="2" d="M186.704 723.625l188.165-65.538"/><path stroke="url(#paint40_linear)" stroke-width="2" d="M174.325 683.272l194.023-45.343"/><path stroke="url(#paint41_linear)" stroke-width="2" d="M332.165 245.095l118.427 160.237"/><path stroke="url(#paint42_linear)" stroke-width="2" d="M366.369 222.594l101.849 171.253"/><path stroke="url(#paint43_linear)" stroke-width="2" d="M402.919 201.542l84.211 180.581"/><path stroke="url(#paint44_linear)" stroke-width="2" d="M442.182 186.263l67.692 187.4"/><path stroke="url(#paint45_linear)" stroke-width="2" d="M480.946 173.759l49.009 193.13"/><path stroke="url(#paint46_linear)" stroke-width="2" d="M521.993 165.952l31.116 196.807"/><path stroke="url(#paint47_linear)" stroke-width="2" d="M992.823 687.478L799.48 639.317"/><path stroke="url(#paint48_linear)" stroke-width="2" d="M979.739 727.612l-187.191-68.268"/><path stroke="url(#paint49_linear)" stroke-width="2" d="M964.215 765.389l-180.038-85.365"/><path stroke="url(#paint50_linear)" stroke-width="2" d="M944.682 801.369L774.059 698.467"/><path stroke="url(#paint51_linear)" stroke-width="2" d="M921.908 835.601L762.432 716.149"/><path stroke="url(#paint52_linear)" stroke-width="2" d="M895.859 868.013L747.728 734.754"/><path stroke="url(#paint53_linear)" stroke-width="2" d="M866.233 896.923l-134.365-147.13"/><path stroke="url(#paint54_linear)" stroke-width="2" d="M833.731 923.18L713.405 764.363"/><path stroke="url(#paint55_linear)" stroke-width="2" d="M799.256 946.165L698.443 774.3"/><path stroke="url(#paint56_linear)" stroke-width="2" d="M763.317 965.198L677.91 785.179"/><path stroke="url(#paint57_linear)" stroke-width="2" d="M724.531 981.848L658.57 793.831"/><path stroke="url(#paint58_linear)" stroke-width="2" d="M685.728 993.676l-48.207-193.332"/><path stroke="url(#paint59_linear)" stroke-width="2" d="M645.521 1001.4l-28.677-197.179"/><path stroke="url(#paint60_linear)" stroke-width="2" d="M603.7 1005.88l-8.812-199.052"/><path stroke="url(#paint61_linear)" stroke-width="2" d="M561.577 1006l9.059-199.045"/><path stroke="url(#paint62_linear)" stroke-width="2" d="M520.978 1001.74l28.514-197.2"/><path stroke="url(#paint63_linear)" stroke-width="2" d="M480.062 993.269l46.454-193.76"/><path stroke="url(#paint64_linear)" stroke-width="2" d="M563.236 161.961l7.754 199.1"/><defs><linearGradient id="paint0_linear" x1="594" y1="361" x2="604" y2="162" gradientUnits="userSpaceOnUse"><stop stop-color="#fff" stop-opacity="0"/><stop offset="1" stop-color="#fff"/></linearGradient><linearGradient id="paint1_linear" x1="615" y1="363.838" x2="645.915" y2="167" gradientUnits="userSpaceOnUse"><stop stop-color="#fff" stop-opacity="0"/><stop offset="1" stop-color="#fff"/></linearGradient><linearGradient id="paint2_linear" x1="636.922" y1="367.976" x2="685.993" y2="174.862" gradientUnits="userSpaceOnUse"><stop stop-color="#fff" stop-opacity="0"/><stop offset="1" stop-color="#fff"/></linearGradient><linearGradient id="paint3_linear" x1="657" y1="374.255" x2="725.093" y2="187" gradientUnits="userSpaceOnUse"><stop stop-color="#fff" stop-opacity="0"/><stop offset="1" stop-color="#fff"/></linearGradient><linearGradient id="paint4_linear" x1="677.806" y1="381.38" x2="764.287" y2="201.875" gradientUnits="userSpaceOnUse"><stop stop-color="#fff" stop-opacity="0"/><stop offset="1" stop-color="#fff"/></linearGradient><linearGradient id="paint5_linear" x1="698.939" y1="392.145" x2="801.155" y2="221.11" gradientUnits="userSpaceOnUse"><stop stop-color="#fff" stop-opacity="0"/><stop offset="1" stop-color="#fff"/></linearGradient><linearGradient id="paint6_linear" x1="716.807" y1="404.727" x2="835.286" y2="244.528" gradientUnits="userSpaceOnUse"><stop stop-color="#fff" stop-opacity="0"/><stop offset="1" stop-color="#fff"/></linearGradient><linearGradient id="paint7_linear" x1="734.721" y1="419.965" x2="867.373" y2="271.29" gradientUnits="userSpaceOnUse"><stop stop-color="#fff" stop-opacity="0"/><stop offset="1" stop-color="#fff"/></linearGradient><linearGradient id="paint8_linear" x1="747.438" y1="432.649" x2="896.655" y2="300.606" gradientUnits="userSpaceOnUse"><stop stop-color="#fff" stop-opacity="0"/><stop offset="1" stop-color="#fff"/></linearGradient><linearGradient id="paint9_linear" x1="747.438" y1="432.649" x2="896.655" y2="300.606" gradientUnits="userSpaceOnUse"><stop stop-color="#fff" stop-opacity="0"/><stop offset="1" stop-color="#fff"/></linearGradient><linearGradient id="paint10_linear" x1="762.138" y1="450.646" x2="922.324" y2="332.149" gradientUnits="userSpaceOnUse"><stop stop-color="#fff" stop-opacity="0"/><stop offset="1" stop-color="#fff"/></linearGradient><linearGradient id="paint11_linear" x1="773.265" y1="468.681" x2="945.046" y2="367.724" gradientUnits="userSpaceOnUse"><stop stop-color="#fff" stop-opacity="0"/><stop offset="1" stop-color="#fff"/></linearGradient><linearGradient id="paint12_linear" x1="784.971" y1="487.254" x2="965.39" y2="402.695" gradientUnits="userSpaceOnUse"><stop stop-color="#fff" stop-opacity="0"/><stop offset="1" stop-color="#fff"/></linearGradient><linearGradient id="paint13_linear" x1="792.853" y1="506.758" x2="980.808" y2="440.622" gradientUnits="userSpaceOnUse"><stop stop-color="#fff" stop-opacity="0"/><stop offset="1" stop-color="#fff"/></linearGradient><linearGradient id="paint14_linear" x1="799.542" y1="528.363" x2="993.169" y2="481.357" gradientUnits="userSpaceOnUse"><stop stop-color="#fff" stop-opacity="0"/><stop offset="1" stop-color="#fff"/></linearGradient><linearGradient id="paint15_linear" x1="804.624" y1="551.528" x2="1001.68" y2="522.06" gradientUnits="userSpaceOnUse"><stop stop-color="#fff" stop-opacity="0"/><stop offset="1" stop-color="#fff"/></linearGradient><linearGradient id="paint16_linear" x1="806.232" y1="573.322" x2="1005.23" y2="563.3" gradientUnits="userSpaceOnUse"><stop stop-color="#fff" stop-opacity="0"/><stop offset="1" stop-color="#fff"/></linearGradient><linearGradient id="paint17_linear" x1="805.814" y1="596.837" x2="1004.89" y2="605.081" gradientUnits="userSpaceOnUse"><stop stop-color="#fff" stop-opacity="0"/><stop offset="1" stop-color="#fff"/></linearGradient><linearGradient id="paint18_linear" x1="804.075" y1="614.714" x2="1000.8" y2="646.313" gradientUnits="userSpaceOnUse"><stop stop-color="#fff" stop-opacity="0"/><stop offset="1" stop-color="#fff"/></linearGradient><linearGradient id="paint19_linear" x1="362.608" y1="617.018" x2="165.534" y2="646.396" gradientUnits="userSpaceOnUse"><stop stop-color="#fff" stop-opacity="0"/><stop offset="1" stop-color="#fff"/></linearGradient><linearGradient id="paint20_linear" x1="361.255" y1="595.871" x2="162.183" y2="604.317" gradientUnits="userSpaceOnUse"><stop stop-color="#fff" stop-opacity="0"/><stop offset="1" stop-color="#fff"/></linearGradient><linearGradient id="paint21_linear" x1="360.996" y1="573.562" x2="162" y2="563.476" gradientUnits="userSpaceOnUse"><stop stop-color="#fff" stop-opacity="0"/><stop offset="1" stop-color="#fff"/></linearGradient><linearGradient id="paint22_linear" x1="363.198" y1="552.642" x2="166.202" y2="522.751" gradientUnits="userSpaceOnUse"><stop stop-color="#fff" stop-opacity="0"/><stop offset="1" stop-color="#fff"/></linearGradient><linearGradient id="paint23_linear" x1="367.087" y1="531.839" x2="174.068" y2="482.396" gradientUnits="userSpaceOnUse"><stop stop-color="#fff" stop-opacity="0"/><stop offset="1" stop-color="#fff"/></linearGradient><linearGradient id="paint24_linear" x1="373.48" y1="509.001" x2="185.668" y2="442.462" gradientUnits="userSpaceOnUse"><stop stop-color="#fff" stop-opacity="0"/><stop offset="1" stop-color="#fff"/></linearGradient><linearGradient id="paint25_linear" x1="382.298" y1="489.005" x2="201.907" y2="404.388" gradientUnits="userSpaceOnUse"><stop stop-color="#fff" stop-opacity="0"/><stop offset="1" stop-color="#fff"/></linearGradient><linearGradient id="paint26_linear" x1="393.711" y1="468.442" x2="221.827" y2="367.661" gradientUnits="userSpaceOnUse"><stop stop-color="#fff" stop-opacity="0"/><stop offset="1" stop-color="#fff"/></linearGradient><linearGradient id="paint27_linear" x1="403.643" y1="453.476" x2="244.804" y2="333.18" gradientUnits="userSpaceOnUse"><stop stop-color="#fff" stop-opacity="0"/><stop offset="1" stop-color="#fff"/></linearGradient><linearGradient id="paint28_linear" x1="418.393" y1="435.521" x2="270.675" y2="301.803" gradientUnits="userSpaceOnUse"><stop stop-color="#fff" stop-opacity="0"/><stop offset="1" stop-color="#fff"/></linearGradient><linearGradient id="paint29_linear" x1="432.883" y1="420.06" x2="300.08" y2="271.52" gradientUnits="userSpaceOnUse"><stop stop-color="#fff" stop-opacity="0"/><stop offset="1" stop-color="#fff"/></linearGradient><linearGradient id="paint30_linear" x1="507.739" y1="793.993" x2="439.05" y2="981.03" gradientUnits="userSpaceOnUse"><stop stop-color="#fff" stop-opacity="0"/><stop offset="1" stop-color="#fff"/></linearGradient><linearGradient id="paint31_linear" x1="488.532" y1="786.043" x2="400.515" y2="964.8" gradientUnits="userSpaceOnUse"><stop stop-color="#fff" stop-opacity="0"/><stop offset="1" stop-color="#fff"/></linearGradient><linearGradient id="paint32_linear" x1="468.829" y1="775.577" x2="364.584" y2="945.383" gradientUnits="userSpaceOnUse"><stop stop-color="#fff" stop-opacity="0"/><stop offset="1" stop-color="#fff"/></linearGradient><linearGradient id="paint33_linear" x1="451.525" y1="763.615" x2="330.858" y2="922.172" gradientUnits="userSpaceOnUse"><stop stop-color="#fff" stop-opacity="0"/><stop offset="1" stop-color="#fff"/></linearGradient><linearGradient id="paint34_linear" x1="435.133" y1="750.23" x2="299.213" y2="895.923" gradientUnits="userSpaceOnUse"><stop stop-color="#fff" stop-opacity="0"/><stop offset="1" stop-color="#fff"/></linearGradient><linearGradient id="paint35_linear" x1="418.155" y1="733.67" x2="269.727" y2="866.6" gradientUnits="userSpaceOnUse"><stop stop-color="#fff" stop-opacity="0"/><stop offset="1" stop-color="#fff"/></linearGradient><linearGradient id="paint36_linear" x1="404.833" y1="716.347" x2="244.097" y2="834.097" gradientUnits="userSpaceOnUse"><stop stop-color="#fff" stop-opacity="0"/><stop offset="1" stop-color="#fff"/></linearGradient><linearGradient id="paint37_linear" x1="392.258" y1="696.474" x2="221.414" y2="799.009" gradientUnits="userSpaceOnUse"><stop stop-color="#fff" stop-opacity="0"/><stop offset="1" stop-color="#fff"/></linearGradient><linearGradient id="paint38_linear" x1="383.884" y1="680.583" x2="202.168" y2="762.314" gradientUnits="userSpaceOnUse"><stop stop-color="#fff" stop-opacity="0"/><stop offset="1" stop-color="#fff"/></linearGradient><linearGradient id="paint39_linear" x1="375.197" y1="659.032" x2="187.033" y2="724.569" gradientUnits="userSpaceOnUse"><stop stop-color="#fff" stop-opacity="0"/><stop offset="1" stop-color="#fff"/></linearGradient><linearGradient id="paint40_linear" x1="368.575" y1="638.902" x2="174.552" y2="684.246" gradientUnits="userSpaceOnUse"><stop stop-color="#fff" stop-opacity="0"/><stop offset="1" stop-color="#fff"/></linearGradient><linearGradient id="paint41_linear" x1="449.788" y1="405.926" x2="331.36" y2="245.689" gradientUnits="userSpaceOnUse"><stop stop-color="#fff" stop-opacity="0"/><stop offset="1" stop-color="#fff"/></linearGradient><linearGradient id="paint42_linear" x1="467.359" y1="394.358" x2="365.509" y2="223.105" gradientUnits="userSpaceOnUse"><stop stop-color="#fff" stop-opacity="0"/><stop offset="1" stop-color="#fff"/></linearGradient><linearGradient id="paint43_linear" x1="486.223" y1="382.546" x2="402.013" y2="201.965" gradientUnits="userSpaceOnUse"><stop stop-color="#fff" stop-opacity="0"/><stop offset="1" stop-color="#fff"/></linearGradient><linearGradient id="paint44_linear" x1="508.934" y1="374.003" x2="441.242" y2="186.603" gradientUnits="userSpaceOnUse"><stop stop-color="#fff" stop-opacity="0"/><stop offset="1" stop-color="#fff"/></linearGradient><linearGradient id="paint45_linear" x1="528.985" y1="367.135" x2="479.977" y2="174.005" gradientUnits="userSpaceOnUse"><stop stop-color="#fff" stop-opacity="0"/><stop offset="1" stop-color="#fff"/></linearGradient><linearGradient id="paint46_linear" x1="552.122" y1="362.915" x2="521.006" y2="166.108" gradientUnits="userSpaceOnUse"><stop stop-color="#fff" stop-opacity="0"/><stop offset="1" stop-color="#fff"/></linearGradient><linearGradient id="paint47_linear" x1="799.722" y1="638.347" x2="993.065" y2="686.508" gradientUnits="userSpaceOnUse"><stop stop-color="#fff" stop-opacity="0"/><stop offset="1" stop-color="#fff"/></linearGradient><linearGradient id="paint48_linear" x1="792.891" y1="658.405" x2="980.082" y2="726.673" gradientUnits="userSpaceOnUse"><stop stop-color="#fff" stop-opacity="0"/><stop offset="1" stop-color="#fff"/></linearGradient><linearGradient id="paint49_linear" x1="784.606" y1="679.12" x2="964.644" y2="764.485" gradientUnits="userSpaceOnUse"><stop stop-color="#fff" stop-opacity="0"/><stop offset="1" stop-color="#fff"/></linearGradient><linearGradient id="paint50_linear" x1="774.576" y1="697.611" x2="945.198" y2="800.513" gradientUnits="userSpaceOnUse"><stop stop-color="#fff" stop-opacity="0"/><stop offset="1" stop-color="#fff"/></linearGradient><linearGradient id="paint51_linear" x1="763.032" y1="715.349" x2="922.507" y2="834.8" gradientUnits="userSpaceOnUse"><stop stop-color="#fff" stop-opacity="0"/><stop offset="1" stop-color="#fff"/></linearGradient><linearGradient id="paint52_linear" x1="748.397" y1="734.01" x2="896.528" y2="867.27" gradientUnits="userSpaceOnUse"><stop stop-color="#fff" stop-opacity="0"/><stop offset="1" stop-color="#fff"/></linearGradient><linearGradient id="paint53_linear" x1="732.607" y1="749.119" x2="866.971" y2="896.249" gradientUnits="userSpaceOnUse"><stop stop-color="#fff" stop-opacity="0"/><stop offset="1" stop-color="#fff"/></linearGradient><linearGradient id="paint54_linear" x1="714.202" y1="763.76" x2="834.528" y2="922.576" gradientUnits="userSpaceOnUse"><stop stop-color="#fff" stop-opacity="0"/><stop offset="1" stop-color="#fff"/></linearGradient><linearGradient id="paint55_linear" x1="699.306" y1="773.794" x2="800.118" y2="945.659" gradientUnits="userSpaceOnUse"><stop stop-color="#fff" stop-opacity="0"/><stop offset="1" stop-color="#fff"/></linearGradient><linearGradient id="paint56_linear" x1="678.813" y1="784.751" x2="764.221" y2="964.769" gradientUnits="userSpaceOnUse"><stop stop-color="#fff" stop-opacity="0"/><stop offset="1" stop-color="#fff"/></linearGradient><linearGradient id="paint57_linear" x1="659.514" y1="793.5" x2="725.475" y2="981.517" gradientUnits="userSpaceOnUse"><stop stop-color="#fff" stop-opacity="0"/><stop offset="1" stop-color="#fff"/></linearGradient><linearGradient id="paint58_linear" x1="638.492" y1="800.102" x2="686.698" y2="993.434" gradientUnits="userSpaceOnUse"><stop stop-color="#fff" stop-opacity="0"/><stop offset="1" stop-color="#fff"/></linearGradient><linearGradient id="paint59_linear" x1="617.834" y1="804.077" x2="646.51" y2="1001.25" gradientUnits="userSpaceOnUse"><stop stop-color="#fff" stop-opacity="0"/><stop offset="1" stop-color="#fff"/></linearGradient><linearGradient id="paint60_linear" x1="595.887" y1="806.784" x2="604.699" y2="1005.84" gradientUnits="userSpaceOnUse"><stop stop-color="#fff" stop-opacity="0"/><stop offset="1" stop-color="#fff"/></linearGradient><linearGradient id="paint61_linear" x1="571.635" y1="807.001" x2="562.576" y2="1006.05" gradientUnits="userSpaceOnUse"><stop stop-color="#fff" stop-opacity="0"/><stop offset="1" stop-color="#fff"/></linearGradient><linearGradient id="paint62_linear" x1="550.481" y1="804.684" x2="521.967" y2="1001.88" gradientUnits="userSpaceOnUse"><stop stop-color="#fff" stop-opacity="0"/><stop offset="1" stop-color="#fff"/></linearGradient><linearGradient id="paint63_linear" x1="527.488" y1="799.742" x2="481.035" y2="993.502" gradientUnits="userSpaceOnUse"><stop stop-color="#fff" stop-opacity="0"/><stop offset="1" stop-color="#fff"/></linearGradient><linearGradient id="paint64_linear" x1="569.991" y1="361.1" x2="562.237" y2="162" gradientUnits="userSpaceOnUse"><stop stop-color="#fff" stop-opacity="0"/><stop offset="1" stop-color="#fff"/></linearGradient></defs></svg>